<svg width="372" height="344" viewBox="0 0 372 344" fill="none" xmlns="http://www.w3.org/2000/svg">
<g clip-path="url(#clip0_20_14533)">
<path opacity="0.7" d="M340.846 218.234C340.846 218.234 382.018 173.438 368.931 95.4934C355.843 17.5486 288.608 -11.1687 244.018 3.83362C199.429 18.8359 189.371 44.9475 152.953 59.8796C116.535 74.8116 47.3335 64.5605 12.7288 114.716C-21.876 164.872 22.3027 247.981 78.5456 300.095C134.788 352.209 278.309 319.583 340.846 218.234Z" fill="url(#paint0_linear_20_14533)"/>
<path d="M370.937 329.727H6.57262C6.48667 329.727 6.40424 329.692 6.34346 329.629C6.28268 329.566 6.24854 329.48 6.24854 329.391C6.24852 329.348 6.25695 329.304 6.27334 329.264C6.28973 329.224 6.31374 329.187 6.34396 329.157C6.37417 329.126 6.40997 329.102 6.44924 329.086C6.48852 329.07 6.53047 329.063 6.57262 329.064H370.937C370.979 329.063 371.021 329.07 371.059 329.086C371.098 329.102 371.134 329.127 371.163 329.157C371.193 329.188 371.216 329.224 371.231 329.265C371.247 329.305 371.254 329.348 371.253 329.391C371.254 329.435 371.247 329.478 371.231 329.519C371.216 329.56 371.193 329.597 371.163 329.628C371.134 329.66 371.099 329.685 371.06 329.702C371.021 329.719 370.979 329.727 370.937 329.727Z" fill="#113C64"/>
<path d="M18.9211 189.324C18.9211 189.324 16.6781 195.726 11.902 196.602C7.12589 197.477 -1.29197 187.865 4.03848 182.913C9.36894 177.96 16.7037 185.831 18.9211 189.324Z" fill="#1FC3F3"/>
<path d="M11.262 197.097C8.16607 197.097 4.35372 193.736 2.77591 190.367C1.34308 187.325 1.70981 184.486 3.75671 182.585C4.42193 181.941 5.21731 181.46 6.08489 181.175C6.95246 180.891 7.87034 180.81 8.77161 180.94C13.036 181.497 17.3686 186.114 19.279 189.076C19.3104 189.137 19.3268 189.206 19.3268 189.275C19.3268 189.344 19.3104 189.413 19.279 189.474C19.1852 189.739 16.891 196.124 11.9358 197.035C11.7133 197.076 11.4879 197.096 11.262 197.097ZM7.92726 181.772C6.59033 181.773 5.30379 182.301 4.32814 183.248C1.93156 185.468 2.81002 188.422 3.54349 189.987C5.24924 193.63 9.2748 196.619 11.8249 196.177C15.8334 195.452 18.0168 190.473 18.4432 189.394C16.5669 186.565 12.5243 182.32 8.66926 181.833C8.42354 181.796 8.17565 181.775 7.92726 181.772Z" fill="#113C64"/>
<path d="M26.2223 157.886C26.2223 157.886 19.2032 175.634 22.0091 184.371C24.8151 193.108 42.2222 199.511 47.2798 188.156C52.3373 176.802 41.105 160.796 36.8918 157.302C32.6786 153.809 27.6296 154.968 26.2223 157.886Z" fill="#1FC3F3"/>
<path d="M37.5571 194.7H36.7042C30.0774 194.32 23.3226 189.757 21.6425 184.539C18.8109 175.749 25.5742 158.47 25.9068 157.745C26.3015 157.014 26.8487 156.384 27.5082 155.9C28.1678 155.417 28.9232 155.092 29.7192 154.95C31.0398 154.691 32.3997 154.742 33.6987 155.1C34.9977 155.458 36.2025 156.114 37.2245 157.019C41.4888 160.557 52.8832 176.828 47.7319 188.404C45.83 192.463 42.2905 194.7 37.5571 194.7ZM26.6062 158.063C26.3759 158.673 19.7235 175.864 22.4186 184.23C23.9623 189.058 30.5124 193.427 36.7128 193.789C39.4761 193.94 44.4739 193.4 46.8875 187.971C51.8427 176.837 40.8065 161.114 36.6531 157.647C35.7242 156.823 34.6295 156.225 33.449 155.896C32.2686 155.567 31.0321 155.516 29.8301 155.746C29.1619 155.864 28.5269 156.133 27.9699 156.533C27.4128 156.933 26.9473 157.456 26.6062 158.063Z" fill="#113C64"/>
<path d="M67.211 165.447C67.211 165.447 55.1343 176.802 53.7356 188.156C52.3369 199.511 60.4733 203.588 68.8912 202.129C77.3091 200.669 81.5222 178.553 78.9636 168.365C76.405 158.178 67.211 165.447 67.211 165.447Z" fill="#1FC3F3"/>
<path d="M65.6507 202.854C61.8981 202.854 58.6316 201.669 56.397 199.44C53.7872 196.832 52.7126 192.905 53.3096 188.103C54.7169 176.713 66.4268 165.589 66.9556 165.111C67.1432 164.961 71.6635 161.45 75.4246 162.812C77.3436 163.502 78.6911 165.341 79.4161 168.259C81.2412 175.626 79.6122 190.164 74.7679 197.875C73.0622 200.625 71.092 202.208 68.9684 202.571C67.8717 202.758 66.7622 202.853 65.6507 202.854ZM67.4844 165.792C66.9982 166.252 55.5015 177.288 54.154 188.209C53.5996 192.737 54.5804 196.398 56.994 198.821C59.6635 201.474 63.9791 202.544 68.8234 201.713C70.6997 201.386 72.4652 199.944 74.0515 197.406C78.7764 189.872 80.3713 175.679 78.5888 168.489C77.9406 165.836 76.7807 164.244 75.1773 163.652C71.9193 162.467 67.7573 165.58 67.4844 165.792Z" fill="#113C64"/>
<path d="M69.4544 228.322C69.4544 228.322 55.979 228.906 55.4161 235.6C54.8532 242.295 61.318 243.754 67.7743 237.935C74.2305 232.116 75.0663 228.614 69.4544 228.322Z" fill="#1FC3F3"/>
<path d="M60.09 242.02C59.2038 242.037 58.3266 241.834 57.5313 241.428C55.6465 240.437 54.7424 238.35 54.9727 235.565C55.5527 228.561 68.849 227.906 69.4119 227.88C71.689 227.995 73.0451 228.649 73.4374 229.825C74.043 231.647 72.2605 234.406 67.979 238.253C65.3181 240.711 62.4865 242.02 60.09 242.02ZM69.4716 228.755C68.9087 228.755 56.3714 229.498 55.8256 235.627C55.6209 238.032 56.3629 239.801 57.9151 240.623C60.2861 241.87 64.0388 240.676 67.4758 237.581C72.5931 232.938 72.9428 230.904 72.6784 230.1C72.3628 229.127 70.7594 228.835 69.4545 228.773L69.4716 228.755Z" fill="#113C64"/>
<path d="M55.8167 237.599L55.467 236.794C55.902 236.59 66.1877 231.727 70.9723 230.851L71.1173 231.736C66.4435 232.576 55.9361 237.554 55.8167 237.599Z" fill="#113C64"/>
<path d="M72.4566 272.131C72.4566 272.131 62.5633 262.643 57.5825 266.94C52.6017 271.238 56.1667 277.022 64.704 277.667C73.2413 278.313 76.2178 276.473 72.4566 272.131Z" fill="#1FC3F3"/>
<path d="M67.766 278.233C66.8363 278.233 65.8043 278.233 64.67 278.109C59.7063 277.738 56.0389 275.624 55.1008 272.609C54.4526 270.531 55.2372 268.4 57.3097 266.604C62.5208 262.094 72.3374 271.415 72.7467 271.813C74.2648 273.582 74.7766 275.032 74.2478 276.146C73.6252 277.552 71.4845 278.233 67.766 278.233ZM60.7639 266.259C59.7069 266.227 58.6743 266.592 57.8556 267.285C56.0731 268.833 55.3822 270.601 55.9366 272.37C56.7895 275.023 60.201 276.915 64.7553 277.252C71.5783 277.764 73.1817 276.571 73.5399 275.81C73.9834 274.864 73.0538 273.475 72.1838 272.476C71.8171 272.122 65.54 266.259 60.7639 266.259Z" fill="#113C64"/>
<path d="M71.2876 275.748C67.407 272.918 56.584 268.674 56.4731 268.674L56.7717 267.842C57.2237 268.019 67.8078 272.158 71.7737 275.058L71.2876 275.748Z" fill="#113C64"/>
<path d="M20.2432 269.337C20.2432 269.337 33.8892 256.24 40.7122 262.183C47.5352 268.125 42.6738 276.075 30.9042 276.968C19.1345 277.862 15.0663 275.315 20.2432 269.337Z" fill="#1FC3F3"/>
<path d="M26.8018 277.579C21.7357 277.579 18.7421 276.694 17.8807 274.829C17.1814 273.361 17.8807 271.415 19.9276 269.045C20.4991 268.506 33.9318 255.78 40.9936 261.873C43.7996 264.305 44.8657 267.179 43.9957 269.974C42.7249 274.068 37.7271 276.933 30.9468 277.446C29.4969 277.517 28.064 277.579 26.8018 277.579ZM20.5502 269.62C18.7592 271.689 18.1195 273.299 18.6483 274.413C19.1771 275.527 21.4287 277.207 30.9126 276.5C37.2324 276.022 42.0597 273.334 43.2111 269.646C43.9616 267.215 42.9893 264.677 40.4734 262.492C34.0768 256.974 21.0534 269.178 20.5502 269.646V269.62Z" fill="#113C64"/>
<path d="M21.7364 274.183L21.2502 273.467C26.7001 269.478 41.2672 263.783 41.8898 263.545L42.1883 264.367C42.0348 264.411 27.101 270.265 21.7364 274.183Z" fill="#113C64"/>
<path d="M36.0468 242.303C36.0468 242.303 34.6396 249.289 29.5906 251.907C24.5416 254.525 15.5523 248.998 20.3284 240.535C25.1045 232.072 33.5223 238.766 36.0468 242.303Z" fill="#1FC3F3"/>
<path d="M26.7762 252.995C25.5978 252.986 24.433 252.732 23.3505 252.25C22.2681 251.767 21.2898 251.064 20.4735 250.183C18.094 247.53 17.9149 243.992 19.9618 240.331C21.4884 237.625 23.5097 236.175 25.9319 236.033C30.1962 235.786 34.58 239.571 36.354 242.038C36.3912 242.087 36.4174 242.145 36.4306 242.206C36.4439 242.267 36.4439 242.33 36.4307 242.392C36.371 242.683 34.9212 249.617 29.7442 252.296C28.8209 252.765 27.8045 253.005 26.7762 252.995ZM26.3583 236.909H26.0086C23.8594 237.033 22.0684 238.333 20.6952 240.765C18.8445 244.037 18.9895 247.238 21.0961 249.608C23.2027 251.978 26.8956 252.835 29.4031 251.536C33.7527 249.281 35.3135 243.577 35.5864 242.427C33.7613 240.022 29.8977 236.909 26.3583 236.909Z" fill="#113C64"/>
<path d="M24.2602 220.47C24.2602 220.47 21.7016 214.642 11.9021 218.427C2.10255 222.212 -1.85478 228.039 4.32002 230.073C10.4948 232.107 24.2602 220.47 24.2602 220.47Z" fill="#1FC3F3"/>
<path d="M5.93206 230.754C5.35425 230.758 4.77915 230.672 4.22632 230.498C1.57388 229.613 0.993926 228.181 0.968339 227.119C0.900109 224.148 5.14742 220.576 11.7913 218.011C21.8211 214.129 24.6185 220.195 24.6441 220.284C24.6827 220.374 24.692 220.474 24.6704 220.57C24.6489 220.666 24.5977 220.751 24.5247 220.814C24.0045 221.248 12.6953 230.754 5.93206 230.754ZM17.9149 217.587C15.9054 217.64 13.9212 218.066 12.0557 218.842C4.9342 221.584 1.73593 225.032 1.82121 227.102C1.82121 228.49 3.28816 229.26 4.49071 229.649C9.89793 231.417 21.7785 221.964 23.7401 220.354C23.2369 219.576 21.6676 217.587 17.9149 217.587Z" fill="#113C64"/>
<path d="M6.61442 226.669L6.06006 225.988C11.7231 221 21.8979 219.797 22.3329 219.797L22.4182 220.682C22.3158 220.655 12.0728 221.849 6.61442 226.669Z" fill="#113C64"/>
<path d="M52.3276 150.608C52.3276 150.608 54.0334 154.676 57.3852 153.81C60.737 152.943 61.5898 147.69 66.9288 149.149C72.2678 150.608 76.7539 157.011 76.7539 154.101C76.7539 151.192 70.0162 143.622 62.4342 143.622C54.8521 143.622 52.6091 146.797 52.3276 150.608Z" fill="#1FC3F3"/>
<path d="M76.3284 155.295C75.6973 155.295 74.8615 154.623 73.5139 153.527C71.8082 152.138 69.369 150.237 66.8189 149.538C63.757 148.707 62.3327 150.21 60.8487 151.793C59.9774 152.904 58.8216 153.738 57.514 154.199C54.5716 154.968 52.5929 152.271 51.9618 150.741C51.9489 150.674 51.9489 150.605 51.9618 150.538C52.3285 145.63 55.8765 143.145 62.4948 143.145C70.111 143.145 77.241 150.653 77.241 154.066C77.241 154.278 77.241 154.95 76.7548 155.171C76.6273 155.255 76.4791 155.298 76.3284 155.295ZM65.1813 148.451C65.8099 148.459 66.4348 148.551 67.0406 148.725C69.7527 149.468 72.2261 151.422 74.0342 152.855C74.7156 153.484 75.483 154.005 76.3113 154.402C76.3113 154.402 76.3113 154.287 76.3113 154.101C76.3113 151.643 70.0598 144.064 62.418 144.064C56.2859 144.064 53.1217 146.178 52.7464 150.529C53.0194 151.121 54.5204 154.066 57.2667 153.376C58.4178 152.951 59.4332 152.205 60.2006 151.219C61.4543 149.901 62.8359 148.451 65.1813 148.451Z" fill="#113C64"/>
<path d="M42.2307 236.343C41.8863 234.917 41.4678 233.512 40.977 232.134C36.1327 218.718 24.4568 220.876 24.3801 220.903L24.218 220.018C24.3459 220.018 36.7211 217.701 41.8213 231.806C42.3113 233.217 42.7242 234.654 43.058 236.113L42.2307 236.343Z" fill="#113C64"/>
<path d="M74.6997 206.984C74.6997 206.984 77.2583 201.165 87.0493 204.95C96.8403 208.735 100.806 214.554 94.6314 216.587C88.4566 218.621 74.6997 206.984 74.6997 206.984Z" fill="#1FC3F3"/>
<path d="M93.0274 217.268C86.2642 217.268 74.955 207.771 74.4348 207.329C74.363 207.265 74.3126 207.179 74.2911 207.084C74.2697 206.988 74.2782 206.888 74.3154 206.798C74.3154 206.736 77.1213 200.608 87.2108 204.534C93.8462 207.09 98.0935 210.662 98.0253 213.643C98.0253 214.695 97.4197 216.136 94.7673 217.012C94.2037 217.19 93.6167 217.277 93.0274 217.268ZM75.2536 206.869C77.2237 208.487 89.0957 217.949 94.5114 216.172C95.7055 215.774 97.1468 215.004 97.1724 213.616C97.2236 211.564 94.0338 208.098 86.9379 205.356C78.793 202.235 75.9188 205.772 75.2536 206.869Z" fill="#113C64"/>
<path d="M91.527 213.191C86.9385 207.302 77.0708 207.806 76.977 207.806L76.9258 206.922C77.3522 206.922 87.3308 206.4 92.1922 212.634L91.527 213.191Z" fill="#113C64"/>
<path d="M66.5128 208.567L66.1716 207.762C68.8769 206.53 71.8615 206.11 74.7857 206.55L74.6321 207.435C71.8768 207.042 69.0704 207.434 66.5128 208.567Z" fill="#113C64"/>
<path d="M30.3926 196.849C24.6357 190.756 18.9129 189.775 18.8532 189.775C18.7935 189.775 10.3245 187.493 7.18593 190.5L6.6145 189.845C10.1198 186.512 18.6656 188.811 19.0323 188.908C19.2285 188.908 25.0451 189.943 30.9726 196.248L30.3926 196.849Z" fill="#113C64"/>
<path d="M31.8044 161.757L30.9722 161.951L31.4981 164.384L32.3303 164.191L31.8044 161.757Z" fill="#113C64"/>
<path d="M46.0009 292.992H45.148C45.148 292.488 46.3932 242.71 45.148 227.686C43.9028 212.661 38.0947 194.895 38.0265 194.718L32.0564 166.968L32.9093 166.774L38.8794 194.479C38.8794 194.612 44.7642 212.493 46.0179 227.588C47.2717 242.684 46.0094 292.497 46.0009 292.992Z" fill="#113C64"/>
<path d="M71.2217 172.444L70.1379 174.847L70.9105 175.222L71.9943 172.818L71.2217 172.444Z" fill="#113C64"/>
<path d="M48.9334 292.931H48.0806C48.0806 292.471 48.5241 247.034 50.1872 234.106C51.8503 221.177 58.5283 200.732 58.5965 200.502L68.9077 177.58L69.6839 177.952L59.347 200.847C59.2959 201.006 52.652 221.354 50.9974 234.212C49.3428 247.07 48.942 292.48 48.9334 292.931Z" fill="#113C64"/>
<path d="M51.4505 293.019L50.5977 292.966C52.2522 263.713 55.1776 237.413 55.2117 237.148L56.0646 237.254C56.039 237.51 53.1136 263.792 51.4505 293.019Z" fill="#113C64"/>
<path d="M41.804 292.939H40.9511C40.9511 292.515 41.804 251.138 40.0983 245.611C39.5268 243.692 38.7592 242.542 37.8723 242.277C37.5989 242.208 37.3138 242.206 37.0397 242.272C36.7657 242.338 36.5105 242.47 36.2944 242.657L36.1921 242.737H36.0642C35.9874 242.737 28.4651 243.718 25.8297 248.149L25.1047 247.68C27.8339 243.152 34.8446 242.02 35.8765 241.879C36.1966 241.629 36.5666 241.458 36.9593 241.376C37.3521 241.295 37.7573 241.307 38.1452 241.41C39.3392 241.764 40.2774 243.09 40.9511 245.336C42.6228 250.987 41.8381 291.224 41.804 292.939Z" fill="#113C64"/>
<path d="M43.9016 292.992L43.0488 292.948C43.0488 292.541 45.0445 252.128 42.8867 239.571L43.7396 239.42C45.9059 252.075 43.9187 292.586 43.9016 292.992Z" fill="#113C64"/>
<path d="M52.6959 292.992C52.6959 290.516 52.1842 232.178 57.1821 218.338C58.3895 214.65 60.6762 211.445 63.7236 209.168L64.2012 209.893C61.3022 212.071 59.1291 215.131 57.9838 218.648C53.0371 232.337 53.5488 292.382 53.5488 292.984L52.6959 292.992Z" fill="#113C64"/>
<path d="M47.6718 292.984L46.819 292.869C48.013 283.866 45.6164 231.771 38.8787 211.679C37.3377 206.867 34.9491 202.394 31.834 198.485L32.4822 197.91C35.6641 201.89 38.105 206.448 39.6804 211.352C46.4608 231.585 48.8573 283.964 47.6718 292.984Z" fill="#113C64"/>
<path d="M48.9334 292.93H48.0806C48.0806 292.426 48.3791 241.888 48.7799 216.923H49.6328C49.2319 241.896 48.942 292.426 48.9334 292.93Z" fill="#113C64"/>
<path d="M49.6839 213.793H48.8311C49.1637 193.657 49.4792 179.579 49.7607 171.956C50.4942 152.218 51.5603 150.52 52.0123 150.246C52.4558 149.193 54.6732 145.152 62.6306 145.683L62.5794 146.567C54.3236 146.019 52.7969 150.564 52.7372 150.759L52.524 151.422L52.362 151.254C52.0123 152.218 51.202 156.135 50.6562 171.991C50.3321 179.587 50.0165 193.666 49.6839 213.793Z" fill="#113C64"/>
<path d="M38.5202 232.85C38.5202 232.85 31.501 226.359 34.307 223.167C37.1129 219.974 54.5201 217.64 59.5691 221.787C64.6181 225.935 53.3772 231.789 49.1811 233.062C44.985 234.336 39.9189 233.911 38.5202 232.85Z" fill="#1FC3F3"/>
<path d="M43.6122 234.283C41.2156 234.283 39.1432 233.876 38.2647 233.204C38.0685 233.027 33.4289 228.694 33.2583 225.245C33.2248 224.823 33.2756 224.399 33.4077 223.999C33.5398 223.598 33.7503 223.231 34.0259 222.919C37.0621 219.461 54.6058 217.162 59.868 221.486C60.3833 221.831 60.7897 222.324 61.0368 222.906C61.2839 223.488 61.3609 224.132 61.2582 224.758C60.5247 228.658 52.5418 232.558 49.3179 233.531C47.4591 234.056 45.5386 234.309 43.6122 234.283ZM38.7849 232.514C40.0557 233.451 44.9001 233.911 49.0194 232.647C52.6527 231.55 59.7315 227.8 60.3456 224.555C60.4246 224.094 60.3723 223.62 60.1951 223.189C60.0178 222.759 59.7234 222.391 59.3477 222.132C54.5631 218.206 37.3436 220.425 34.6656 223.467C34.4679 223.694 34.3168 223.959 34.2214 224.248C34.1261 224.537 34.0886 224.843 34.1112 225.148C34.2221 228.154 38.495 232.231 38.7849 232.505V232.514Z" fill="#113C64"/>
<path d="M45.2664 229.472H44.4136C44.4205 228.802 44.4747 228.134 44.5756 227.473L45.4285 227.606C45.328 228.223 45.2738 228.846 45.2664 229.472Z" fill="#113C64"/>
<path d="M46.0177 224.909L45.1648 224.652C45.6506 222.975 46.2637 221.339 46.9985 219.762L47.7575 220.16C47.0633 221.695 46.4817 223.283 46.0177 224.909Z" fill="#113C64"/>
<path d="M38.5202 275.279C38.5202 275.279 31.501 268.789 34.307 265.605C37.1129 262.421 54.5201 260.069 59.5691 264.217C64.6181 268.364 53.3772 274.218 49.1811 275.492C44.985 276.765 39.9189 276.35 38.5202 275.279Z" fill="#1FC3F3"/>
<path d="M43.6122 276.712C41.2156 276.712 39.1432 276.306 38.2647 275.642C38.0685 275.457 33.4289 271.123 33.2583 267.683C33.2248 267.262 33.2756 266.838 33.4077 266.437C33.5398 266.037 33.7503 265.67 34.0259 265.358C37.0621 261.9 54.6058 259.601 59.868 263.925C60.3824 264.27 60.7882 264.764 61.0353 265.345C61.2823 265.927 61.3598 266.57 61.2582 267.197C60.5247 271.097 52.5418 275.006 49.3179 275.969C47.4587 276.491 45.5382 276.741 43.6122 276.712ZM38.7849 274.944C40.0557 275.881 44.9 276.341 49.0194 275.076C52.6527 273.98 59.7315 270.23 60.3456 266.985C60.4246 266.524 60.3723 266.049 60.1951 265.619C60.0178 265.189 59.7234 264.821 59.3477 264.562C54.5631 260.635 37.3436 262.855 34.6656 265.897C34.4679 266.123 34.3168 266.389 34.2214 266.678C34.1261 266.967 34.0886 267.273 34.1112 267.577C34.2221 270.602 38.495 274.661 38.7849 274.935V274.944Z" fill="#113C64"/>
<path d="M45.2664 271.91H44.4136C44.4136 267.665 46.921 262.413 47.0319 262.183L47.791 262.581C47.7654 262.643 45.2664 267.878 45.2664 271.91Z" fill="#113C64"/>
<path d="M43.7402 257.337C43.7402 257.337 38.9727 252.915 40.8831 250.766C42.7935 248.617 54.6058 247.008 58.0344 249.829C61.4629 252.65 53.8468 256.611 50.9811 257.478C48.1155 258.345 44.6954 258.062 43.7402 257.337Z" fill="#1FC3F3"/>
<path d="M47.1938 258.46C45.9158 258.552 44.6374 258.286 43.4924 257.69C43.3559 257.566 40.1661 254.586 40.0809 252.172C40.0578 251.868 40.095 251.562 40.1904 251.273C40.2857 250.984 40.4371 250.718 40.6352 250.492C42.7162 248.122 54.7588 246.539 58.3665 249.501C58.7379 249.752 59.0303 250.11 59.2077 250.532C59.385 250.953 59.4395 251.419 59.3643 251.871C58.8185 254.728 53.0872 257.354 51.1682 257.929C49.8745 258.301 48.5362 258.48 47.1938 258.46ZM43.9955 256.992C44.8484 257.593 48.1149 257.876 50.8185 257.054C53.1895 256.337 58.0168 253.79 58.4091 251.668C58.451 251.377 58.4085 251.079 58.287 250.813C58.1655 250.547 57.9705 250.325 57.7268 250.174C54.5115 247.521 42.955 249.015 41.1555 251.058C41.0334 251.199 40.9402 251.364 40.8815 251.543C40.8229 251.723 40.8 251.913 40.8143 252.101C40.9423 253.799 43.1427 256.187 43.9955 256.992Z" fill="#113C64"/>
<path d="M48.4649 255.046H47.6121C47.6121 252.128 49.3178 248.538 49.4031 248.387L50.1622 248.785C50.1622 248.785 48.4649 252.34 48.4649 255.046Z" fill="#113C64"/>
<path d="M56.1492 285.714H37.1472V329.4H56.1492V285.714Z" fill="#113C64"/>
<path d="M56.149 329.851H37.1725C37.0594 329.851 36.951 329.804 36.871 329.721C36.791 329.638 36.7461 329.526 36.7461 329.409V285.714C36.7461 285.597 36.791 285.485 36.871 285.402C36.951 285.319 37.0594 285.272 37.1725 285.272H56.149C56.2621 285.272 56.3705 285.319 56.4505 285.402C56.5305 285.485 56.5754 285.597 56.5754 285.714V329.391C56.5777 329.45 56.5684 329.51 56.548 329.566C56.5276 329.621 56.4965 329.672 56.4567 329.715C56.4169 329.758 56.3691 329.792 56.3162 329.815C56.2633 329.839 56.2064 329.851 56.149 329.851ZM37.5734 328.966H55.7225V286.157H37.5734V328.966Z" fill="#113C64"/>
<path d="M244.985 188.024L240.158 203.685C240.158 203.685 223.459 254.454 223.211 256.452C222.964 258.451 236.465 313.933 236.465 313.933L234.026 319.239L235.245 323.784C235.245 323.784 230.375 327.826 228.67 328.843C226.964 329.86 222.58 331.363 224.525 333.132C226.469 334.9 231.348 335.908 234.026 335.157C236.629 334.39 239.097 333.196 241.335 331.619C243.852 329.881 246.454 328.278 249.13 326.818C249.864 326.57 252.294 327.074 251.808 324.041C251.356 321.713 250.705 319.431 249.864 317.223C249.864 317.223 251.083 313.933 250.102 312.421C249.122 310.909 248.158 310.148 247.911 308.884C247.663 307.619 246.401 258.477 246.401 258.477L259.058 227.933L262.017 231.002C262.017 231.002 263.723 268.506 264.482 269.761C265.241 271.017 286.111 322.484 286.111 322.484L288.601 323.316L289.812 325.845C289.812 325.845 291.279 336.704 292.985 339.737C294.691 342.771 296.883 345.547 299.313 341.002C301.744 336.457 302.239 331.902 299.808 327.613C298.482 325.395 297.417 323.02 296.635 320.539C296.635 320.539 297.897 317.797 297.173 316.276C296.448 314.755 295.535 309.697 295.535 309.697C295.535 309.697 286.153 266.233 285.915 264.968C285.676 263.704 290.418 211.255 289.932 206.957C289.446 202.659 287.015 187.254 287.015 187.254L245.105 182.461L244.985 188.024Z" fill="#113C64"/>
<path d="M296.661 343.797C295.023 343.797 293.693 341.833 292.618 339.914C290.912 336.943 289.548 326.968 289.403 325.933L288.294 323.634L285.787 322.776L285.71 322.582C278.495 304.807 264.687 270.929 264.115 269.921C263.373 268.638 261.906 237.784 261.599 231.126L259.203 228.641L246.827 258.495C247.271 275.456 248.141 307.654 248.328 308.76C248.545 309.512 248.934 310.197 249.463 310.758C249.77 311.156 250.111 311.599 250.461 312.138C251.433 313.65 250.58 316.418 250.316 317.179C251.149 319.366 251.792 321.628 252.235 323.935C252.332 324.323 252.351 324.728 252.289 325.124C252.228 325.519 252.087 325.898 251.876 326.234C251.602 326.525 251.272 326.753 250.908 326.905C250.544 327.057 250.154 327.13 249.761 327.118C249.595 327.132 249.429 327.159 249.267 327.198C246.632 328.643 244.071 330.225 241.591 331.938C239.315 333.545 236.803 334.76 234.154 335.537C231.305 336.342 226.307 335.281 224.26 333.424C224.047 333.264 223.878 333.049 223.769 332.801C223.66 332.553 223.614 332.28 223.638 332.009C223.8 330.771 225.633 329.851 227.254 329.046C227.723 328.816 228.107 328.604 228.474 328.409C229.923 327.525 233.804 324.377 234.776 323.581L233.591 319.159L236.03 313.854C234.478 307.486 222.563 258.416 222.81 256.373C223.058 254.33 239.1 205.569 239.783 203.491L244.584 187.909L244.712 181.878L287.399 186.768L287.45 187.095C287.45 187.254 289.889 202.562 290.375 206.816C290.674 209.469 289.062 229.631 287.757 245.832C286.998 255.259 286.281 264.164 286.358 264.809C286.597 266.038 295.876 309.078 295.97 309.512C295.97 309.582 296.874 314.552 297.565 315.994C298.256 317.435 297.377 319.849 297.113 320.486C297.89 322.868 298.923 325.152 300.192 327.295C302.554 331.469 302.392 336.138 299.706 341.126C298.767 342.895 297.787 343.779 296.695 343.779L296.661 343.797ZM286.426 322.078L288.9 322.909L290.239 325.739C290.239 325.845 291.706 336.545 293.352 339.472C294.204 340.949 295.433 342.912 296.661 342.912C297.403 342.912 298.17 342.169 298.938 340.737C301.497 336.023 301.633 331.673 299.433 327.79C298.088 325.539 297.008 323.128 296.217 320.61L296.175 320.451L296.243 320.309C296.567 319.593 297.3 317.515 296.78 316.436C296.03 314.879 295.151 309.945 295.074 309.733C294.699 307.964 285.693 266.26 285.454 265.004C285.36 264.5 285.787 259.052 286.844 245.796C288.081 230.498 289.761 209.539 289.471 206.966C289.028 203.084 286.955 189.881 286.597 187.617L245.48 182.904L245.352 188.156L240.533 203.818C234.751 221.372 223.783 254.967 223.595 256.523C223.407 258.08 231.442 291.684 236.832 313.818L236.874 313.977L234.435 319.283L235.689 323.952L235.467 324.129C235.271 324.297 230.546 328.206 228.832 329.223C228.491 329.426 228.047 329.647 227.569 329.886C226.358 330.488 224.525 331.398 224.422 332.168C224.422 332.239 224.422 332.46 224.764 332.805C226.606 334.467 231.288 335.457 233.872 334.723C236.431 333.975 238.857 332.801 241.053 331.248C243.604 329.493 246.24 327.875 248.951 326.402C249.173 326.336 249.402 326.297 249.633 326.287C250.192 326.311 250.739 326.112 251.16 325.73C251.425 325.237 251.492 324.656 251.348 324.112C250.895 321.815 250.25 319.563 249.42 317.382L249.36 317.223L249.42 317.064C249.736 316.179 250.409 313.747 249.71 312.642C249.386 312.138 249.062 311.758 248.755 311.324C248.133 310.659 247.684 309.84 247.45 308.946C247.211 307.681 246.06 263.465 245.932 258.424V258.327V258.239L258.921 227.12L262.443 230.763V230.94C263.126 245.752 264.337 268.249 264.857 269.514C265.565 270.743 284.831 318.169 286.426 322.078Z" fill="#113C64"/>
<path d="M321.036 46.7626L313.139 44.2157C313.058 44.1892 312.973 44.1807 312.889 44.1909C312.805 44.2011 312.724 44.2298 312.651 44.2749C312.578 44.3201 312.516 44.3808 312.468 44.4529C312.419 44.525 312.387 44.6069 312.371 44.6932L312.141 46.0374L309.284 46.2231L308.576 51.3964L312.32 58.6036L312.567 58.6743L301.565 99.8659L283.783 118.746C283.783 118.746 276.721 124.512 275.254 124.291C273.903 124.142 272.545 124.068 271.186 124.07L250.128 115.846L239.425 100.971L233.207 83.6475L230.154 47.5673L234.094 40.307L233.387 35.1338L230.529 34.948L230.401 34.1964C230.373 34.0364 230.311 33.8847 230.222 33.7512C230.132 33.6177 230.016 33.5054 229.881 33.4218C229.747 33.3382 229.596 33.2852 229.441 33.2663C229.285 33.2474 229.127 33.263 228.977 33.3121L221.805 35.6024C221.553 35.6787 221.337 35.8475 221.198 36.0771C221.058 36.3067 221.004 36.5813 221.045 36.8493C221.216 38.0343 221.497 39.9444 221.617 40.3159C221.736 40.6873 223.101 44.5871 223.962 47.0367L221.404 86.327L228.9 110.752L238.751 137.396L244.96 188.024C244.96 188.024 250.077 192.242 259.101 193.798C268.124 195.355 285.437 193.135 286.299 192.242C287.16 191.349 287.365 188.908 287.365 188.908L291.868 138.953C291.868 138.953 311.783 107.197 312.209 104.756C312.636 102.315 318.017 60.1334 318.017 60.1334C318.017 60.1334 320.874 51.9977 321.053 51.4406C321.181 51.0515 321.488 48.9557 321.65 47.7884C321.692 47.5685 321.652 47.3403 321.538 47.1499C321.425 46.9595 321.245 46.821 321.036 46.7626Z" fill="white"/>
<path d="M267.006 194.78C264.347 194.816 261.689 194.633 259.058 194.232C250.051 192.675 244.934 188.545 244.721 188.369L244.584 188.263V188.077L238.375 137.503L228.542 110.911L221.019 86.3801L223.578 47.0987C222.137 42.9778 221.361 40.7404 221.267 40.4575C221.173 40.1745 220.968 38.9541 220.67 36.9202C220.606 36.5422 220.679 36.1533 220.874 35.8272C221.069 35.5012 221.373 35.2607 221.727 35.1515L228.9 32.8612C229.108 32.7936 229.327 32.7727 229.544 32.7999C229.76 32.8271 229.968 32.9017 230.155 33.0188C230.341 33.1359 230.501 33.2929 230.625 33.4791C230.748 33.6654 230.832 33.8768 230.87 34.0992L230.938 34.5148L233.804 34.7005L234.589 40.3779L230.648 47.647L233.685 83.5326L239.8 100.812L250.392 115.492L271.194 123.628C272.547 123.627 273.9 123.703 275.245 123.858C276.098 123.973 280.081 121.205 283.484 118.392L301.147 99.6361L312.038 59.0282L308.14 51.5203L308.925 45.843L311.791 45.6573L311.961 44.6491C311.987 44.5011 312.043 44.3605 312.126 44.2367C312.208 44.1128 312.315 44.0086 312.439 43.9308C312.563 43.853 312.702 43.8035 312.846 43.7856C312.99 43.7676 313.136 43.7817 313.275 43.8267L321.164 46.347C321.467 46.4396 321.727 46.6429 321.897 46.9194C322.066 47.1958 322.133 47.5266 322.085 47.8504C321.778 49.9993 321.565 51.255 321.462 51.5734C321.292 52.1128 318.699 59.5322 318.443 60.222C318.153 62.5389 313.087 102.422 312.661 104.836C312.234 107.25 294.614 135.433 292.311 139.094L287.825 188.952C287.825 189.218 287.569 191.605 286.631 192.551C285.829 193.374 275.765 194.78 267.006 194.78ZM245.386 187.785C249.533 190.682 254.25 192.588 259.194 193.365C268.388 194.948 285.087 192.613 286.034 191.915C286.631 191.296 286.887 189.509 286.964 188.873L291.475 138.838L291.535 138.741C299.518 126.006 311.509 106.436 311.816 104.712C312.234 102.307 317.548 60.4961 317.599 60.0982V60.0009C317.599 59.9213 320.456 51.874 320.627 51.3257C320.885 50.1588 321.082 48.9779 321.215 47.7885C321.232 47.6743 321.209 47.5577 321.149 47.4602C321.089 47.3626 320.998 47.2907 320.891 47.2579L312.993 44.7376C312.949 44.7221 312.901 44.7221 312.857 44.7376C312.836 44.7508 312.818 44.7688 312.805 44.7903C312.791 44.8117 312.783 44.836 312.78 44.8614L312.482 46.5504L309.642 46.7361L309.002 51.4053L312.584 58.3119L313.079 58.4445L301.906 100.096L284.055 119.047C282.81 120.073 276.746 124.972 275.126 124.733C273.794 124.588 272.456 124.514 271.117 124.512H270.964L249.864 116.252L249.787 116.146L239.024 101.157L232.789 83.7272L229.719 47.4701L233.651 40.2275L233.011 35.5583L230.171 35.3726L229.975 34.2761C229.959 34.1773 229.923 34.0833 229.868 34.0008C229.814 33.9183 229.742 33.8492 229.659 33.7985C229.577 33.7458 229.485 33.7121 229.389 33.6999C229.294 33.6877 229.197 33.6972 229.105 33.7278L221.932 36.0093C221.779 36.0565 221.647 36.1593 221.561 36.299C221.475 36.4386 221.44 36.6058 221.463 36.7699C221.593 37.9142 221.781 39.0507 222.026 40.1745C222.086 40.3602 222.538 41.6778 224.363 46.8688V46.9572V47.0545L221.847 86.2563L229.318 110.602L239.186 137.335L245.386 187.785Z" fill="#113C64"/>
<path d="M314.691 54.8276C314.601 54.8247 314.515 54.7926 314.444 54.7358C314.373 54.679 314.321 54.6005 314.295 54.5115C314.27 54.4224 314.272 54.3272 314.302 54.2395C314.331 54.1518 314.387 54.076 314.46 54.0229C314.638 53.6204 314.729 53.1831 314.729 52.7406C314.729 52.2981 314.638 51.8608 314.46 51.4584C313.972 50.6115 313.285 49.9059 312.465 49.4067C312.385 49.3585 312.323 49.2855 312.286 49.1981C312.249 49.1107 312.24 49.0135 312.26 48.9204C312.28 48.8288 312.328 48.7465 312.398 48.6859C312.467 48.6253 312.553 48.5896 312.644 48.5843C314.019 48.502 315.378 48.2345 316.686 47.7884C316.891 47.6646 316.993 47.5408 317.002 47.4082C316.989 47.2947 316.952 47.1857 316.893 47.0893C316.834 46.9928 316.754 46.9114 316.661 46.8511C315.168 46.6451 313.663 46.5446 312.158 46.5504C312.101 46.5504 312.045 46.5387 311.994 46.5158C311.942 46.4929 311.895 46.4594 311.856 46.4173C311.817 46.3752 311.786 46.3253 311.766 46.2707C311.746 46.216 311.737 46.1578 311.74 46.0994C311.742 45.9837 311.788 45.8735 311.867 45.7924C311.947 45.7114 312.054 45.6661 312.166 45.6661C314.196 45.7103 316.703 45.8164 317.121 46.1082C317.337 46.2517 317.516 46.4474 317.642 46.6786C317.768 46.9097 317.838 47.1692 317.846 47.4347C317.83 47.6735 317.753 47.9034 317.622 48.1009C317.492 48.2983 317.313 48.456 317.104 48.5578C316.056 48.9857 314.952 49.2481 313.829 49.336C314.417 49.8121 314.897 50.4158 315.236 51.1046C315.842 52.5107 315.578 54.3147 314.946 54.7569C314.87 54.8059 314.781 54.8305 314.691 54.8276Z" fill="#113C64"/>
<path d="M318.793 53.059C317.34 52.8593 315.935 52.3826 314.648 51.653C314.591 51.6333 314.539 51.6014 314.494 51.5592C314.45 51.5171 314.415 51.4656 314.391 51.4083C314.367 51.351 314.355 51.2891 314.356 51.2267C314.357 51.1643 314.37 51.1028 314.396 51.0462C314.421 50.9897 314.458 50.9393 314.504 50.8985C314.549 50.8577 314.603 50.8274 314.66 50.8096C314.718 50.7917 314.779 50.7867 314.838 50.7949C314.898 50.8031 314.955 50.8242 315.007 50.8571C316.781 51.7414 318.572 52.3162 318.93 52.1747C319.212 51.8524 319.442 51.4852 319.612 51.087C319.633 51.033 319.663 50.9838 319.703 50.9424C319.742 50.901 319.789 50.8682 319.84 50.8459C319.892 50.8236 319.948 50.8123 320.004 50.8127C320.06 50.8131 320.115 50.8252 320.166 50.8482C320.217 50.8696 320.264 50.9012 320.303 50.9413C320.342 50.9813 320.374 51.029 320.395 51.0816C320.416 51.1342 320.428 51.1906 320.428 51.2477C320.428 51.3048 320.418 51.3614 320.397 51.4142C320.185 51.944 319.879 52.4273 319.493 52.8379C319.396 52.9206 319.284 52.9827 319.164 53.0206C319.044 53.0585 318.918 53.0716 318.793 53.059Z" fill="#113C64"/>
<path d="M227.254 45.0471C227.156 45.0471 227.06 45.0119 226.984 44.9475C226.908 44.883 226.856 44.7933 226.836 44.6934C226.539 43.2132 226.399 41.7039 226.418 40.1922C226.513 39.7499 226.712 39.3389 226.998 38.9962C227.284 38.6535 227.647 38.3898 228.056 38.229C227.403 38.138 226.786 37.8627 226.273 37.4331C225.984 37.1722 225.77 36.8331 225.656 36.4538C225.542 36.0744 225.531 35.6695 225.625 35.2842C225.65 35.2043 225.698 35.1338 225.761 35.0819C225.825 35.0299 225.902 34.9988 225.983 34.9924L230.486 34.5237C230.598 34.5113 230.71 34.5452 230.798 34.6181C230.886 34.691 230.943 34.7969 230.956 34.9128C230.961 34.9709 230.956 35.0297 230.94 35.0857C230.924 35.1417 230.897 35.1938 230.861 35.239C230.826 35.2842 230.782 35.3217 230.732 35.3492C230.682 35.3767 230.628 35.3937 230.572 35.3992L226.41 35.8325C226.439 36.208 226.604 36.5583 226.87 36.8141C227.373 37.3359 229.045 37.5304 229.975 37.5304C230.088 37.5175 230.201 37.5517 230.29 37.6255C230.379 37.6993 230.436 37.8067 230.448 37.9239C230.461 38.0412 230.428 38.1588 230.356 38.2508C230.285 38.3429 230.182 38.4018 230.069 38.4147C229.378 38.5828 227.356 39.299 227.271 40.2895C227.26 41.7151 227.395 43.1379 227.672 44.5342C227.683 44.5911 227.683 44.6498 227.673 44.7068C227.662 44.7638 227.641 44.8181 227.61 44.8665C227.579 44.915 227.539 44.9567 227.493 44.9892C227.446 45.0217 227.394 45.0444 227.339 45.056L227.254 45.0471Z" fill="#113C64"/>
<path d="M223.578 41.6601C222.495 41.6601 222.154 39.6084 222.06 38.7241C222.054 38.666 222.059 38.6073 222.075 38.5512C222.09 38.4951 222.117 38.4428 222.152 38.3972C222.187 38.3516 222.231 38.3137 222.28 38.2856C222.329 38.2575 222.384 38.2397 222.44 38.2333C222.496 38.2269 222.552 38.232 222.606 38.2484C222.661 38.2647 222.711 38.2919 222.755 38.3284C222.799 38.365 222.836 38.4101 222.863 38.4613C222.89 38.5125 222.907 38.5688 222.913 38.6268C222.926 39.3955 223.157 40.1431 223.578 40.7757C224.647 40.5764 225.69 40.2561 226.691 39.8207C226.744 39.7946 226.802 39.7801 226.861 39.7781C226.919 39.7761 226.978 39.7868 227.032 39.8093C227.087 39.8318 227.136 39.8657 227.177 39.9089C227.219 39.9521 227.251 40.0037 227.272 40.0604C227.293 40.1172 227.303 40.1778 227.3 40.2386C227.298 40.2993 227.283 40.3589 227.258 40.4136C227.232 40.4683 227.196 40.5169 227.151 40.5564C227.106 40.5959 227.054 40.6254 226.998 40.6431C225.899 41.1163 224.752 41.4575 223.578 41.6601Z" fill="#113C64"/>
<path d="M311.177 107.002L301.019 100.379L283.748 118.72C283.748 118.72 276.687 124.485 275.22 124.264C273.868 124.115 272.51 124.041 271.151 124.043L250.128 115.846L239.424 100.971L234.435 87.0698L222.793 90.7397L228.926 110.743L238.776 137.388L244.985 188.015C244.985 188.015 250.102 192.233 259.126 193.789C268.149 195.346 285.463 193.126 286.324 192.233C287.185 191.34 287.39 188.899 287.39 188.899L291.893 138.944C291.893 138.944 307.006 114.846 311.177 107.002Z" fill="white"/>
<path d="M267.006 194.78C264.347 194.816 261.689 194.633 259.058 194.232C250.051 192.675 244.934 188.546 244.721 188.369L244.584 188.263V188.077L238.375 137.503L228.542 110.911L222.248 90.4569L234.691 86.5305L239.808 100.768L250.392 115.492L271.194 123.628C272.547 123.627 273.9 123.704 275.245 123.858C276.098 123.973 280.081 121.205 283.484 118.393L300.951 99.8218L311.748 106.896L311.552 107.259C307.552 114.767 293.326 137.476 292.303 139.094L287.816 188.952C287.816 189.218 287.561 191.605 286.622 192.551C285.829 193.374 275.765 194.78 267.006 194.78ZM245.386 187.785C249.533 190.682 254.25 192.588 259.194 193.365C268.388 194.948 285.087 192.613 286.034 191.915C286.631 191.296 286.887 189.509 286.964 188.873L291.475 138.838L291.535 138.741C291.68 138.502 306.23 115.297 310.614 107.215L301.087 101.025L284.03 119.1C282.785 120.126 276.721 125.025 275.1 124.786C273.769 124.641 272.431 124.567 271.092 124.565H270.938L249.838 116.306L249.761 116.199L238.998 101.21L234.188 87.6182L223.331 91.0848L229.301 110.655L239.169 137.388L245.386 187.785Z" fill="#113C64"/>
<path d="M254.121 135.433L256.56 141.491L249.737 176.094L254.607 186.706L260.705 176.607L258.999 141.995L262.897 136.689L256.961 128.474L254.121 135.433Z" fill="#1FC3F3"/>
<path d="M254.555 187.626L249.292 176.13V175.979L256.115 141.491L253.659 135.38L256.857 127.554L263.425 136.654L259.425 142.092L261.13 176.678L261.062 176.793L254.555 187.626ZM250.188 176.041L254.657 185.769L260.269 176.466L258.563 141.836L262.359 136.671L257.062 129.34L254.589 135.416L257.002 141.429V141.562L250.188 176.041Z" fill="#113C64"/>
<path d="M255.51 121.408C255.51 121.408 252.099 125.626 251.868 127.598C251.638 129.57 251.016 138.705 251.016 138.705L258.035 134.646L264.5 142.251C264.5 142.251 270.47 135.371 273.071 132.259C274.038 131.221 274.74 129.95 275.114 128.56C275.488 127.171 275.521 125.706 275.212 124.3C274.785 122.08 272.201 119.569 272.201 119.569L255.51 121.408Z" fill="white"/>
<path d="M264.473 142.941L257.915 135.239L250.503 139.51L250.563 138.696C250.563 138.325 251.203 129.561 251.416 127.572C251.629 125.582 255.015 121.302 255.16 121.125L255.271 120.984L272.328 119.1L272.473 119.233C272.584 119.339 275.16 121.886 275.612 124.211C276.021 126.343 276.141 129.225 273.377 132.577C270.819 135.654 264.849 142.508 264.806 142.579L264.473 142.941ZM258.103 134.098L264.482 141.597C265.761 140.129 270.52 134.637 272.721 131.984C275.237 128.942 275.169 126.422 274.768 124.362C274.427 122.593 272.542 120.55 272.021 120.002L255.697 121.771C254.7 123.026 252.422 126.192 252.286 127.625C252.107 129.234 251.646 135.584 251.484 137.892L258.103 134.098Z" fill="#113C64"/>
<path d="M257.906 91.6066C257.906 91.6066 251.51 98.5662 251.399 99.2206C251.288 99.875 251.399 102.917 251.194 103.35C250.99 103.784 246.265 108.656 246.265 109.222C246.265 109.788 248.687 112.485 248.687 112.485C248.687 112.485 248.687 123.256 249.633 123.69C250.58 124.123 255.928 123.469 255.928 123.469L258.026 134.673L272.815 125.326L272.192 119.56C272.192 119.56 281.736 113.794 283.1 106.941C284.465 100.087 281.522 93.8881 277.855 91.2794C274.188 88.6706 268.098 87.0346 267.783 87.0346C267.467 87.0346 268.516 84.9653 266.93 84.4259C265.343 83.8865 262.103 84.532 259.587 86.8136C257.071 89.0951 257.906 91.6066 257.906 91.6066Z" fill="white"/>
<path d="M257.71 135.38L255.57 123.955C254.137 124.123 250.342 124.512 249.446 124.096C248.551 123.681 248.252 119.887 248.243 112.662C246.649 110.84 245.838 109.691 245.838 109.222C245.838 108.753 246.273 108.223 249.199 104.986C249.907 104.199 250.717 103.306 250.819 103.138C250.897 102.383 250.929 101.624 250.913 100.865C250.904 100.29 250.927 99.7139 250.981 99.1409C251.084 98.5042 254.504 94.6662 257.429 91.4738C257.267 90.5439 257.357 89.5858 257.688 88.7055C258.02 87.8253 258.579 87.0572 259.305 86.4863C261.864 84.1428 265.275 83.3912 267.066 84.0014C268.499 84.5054 268.269 85.9999 268.167 86.6543C269.651 86.9992 274.81 88.5644 278.086 90.8902C281.847 93.5431 284.909 99.9633 283.51 107.011C282.23 113.44 274.171 118.799 272.636 119.772L273.267 125.538L257.71 135.38ZM256.252 123L258.316 133.983L272.346 125.14L271.715 119.365L271.953 119.215C272.047 119.162 281.335 113.476 282.665 106.896C283.996 100.317 281.122 94.1887 277.599 91.6861C274.077 89.1835 268.303 87.5475 267.74 87.4767H267.544L267.399 87.2999C267.228 87.0965 267.271 86.84 267.322 86.4951C267.467 85.6108 267.425 85.0625 266.793 84.8415C265.514 84.3993 262.427 84.8415 259.868 87.1495C257.591 89.21 258.299 91.4385 258.307 91.4562L258.393 91.7126L258.214 91.9072C255.271 95.1084 252.03 98.796 251.808 99.3354C251.808 99.5211 251.808 100.22 251.766 100.874C251.83 101.764 251.764 102.658 251.57 103.527C251.044 104.259 250.459 104.942 249.821 105.57C248.717 106.734 247.675 107.959 246.7 109.24C247.378 110.283 248.143 111.262 248.985 112.167L249.096 112.3V112.468C249.096 117.34 249.386 122.726 249.855 123.309C250.367 123.53 253.693 123.309 255.826 123.017L256.252 123Z" fill="#113C64"/>
<path d="M277.838 91.2794C274.162 88.6264 268.081 87.0346 267.765 87.0346C267.45 87.0346 268.499 84.9653 266.913 84.4259C265.326 83.8865 262.085 84.532 259.569 86.8136C257.053 89.0951 257.864 91.6066 257.864 91.6066C257.864 91.6066 258.495 92.4909 260.166 91.4916C261.838 90.4923 262.896 89.6434 266.887 91.1644C270.878 92.6854 274.017 93.9942 270.657 95.5153C267.296 97.0363 264.363 97.2839 264.687 98.4512C265.011 99.6185 267.245 102.873 267.245 103.35C267.245 103.828 265.77 107.922 266.392 108.356C267.015 108.789 268.49 109.01 268.806 108.356C269.432 107.251 270.342 106.348 271.433 105.747C272.371 105.42 275.629 107.268 275.416 109.116C275.203 110.964 272.166 113.679 271.006 114.006C269.846 114.334 268.908 114.449 269.437 115.209C269.966 115.97 271.22 119.56 272.166 119.56C272.166 119.56 281.71 113.794 283.075 106.941C284.439 100.087 281.505 93.8881 277.838 91.2794Z" fill="#113C64"/>
<path d="M272.287 120.002H272.176C271.323 120.002 270.607 118.614 269.703 116.668C269.526 116.254 269.324 115.852 269.097 115.466C268.993 115.348 268.922 115.205 268.89 115.049C268.859 114.893 268.868 114.732 268.918 114.581C269.089 114.077 269.694 113.918 270.462 113.697L270.905 113.573C271.98 113.272 274.82 110.673 274.999 109.054C274.979 108.684 274.874 108.324 274.691 108.005C274.508 107.687 274.254 107.419 273.95 107.224C273.298 106.595 272.458 106.218 271.57 106.154C270.592 106.721 269.775 107.544 269.199 108.541C269.123 108.691 269.015 108.821 268.883 108.922C268.752 109.023 268.601 109.092 268.44 109.125C267.658 109.286 266.846 109.138 266.163 108.709C265.558 108.294 265.796 107.02 266.556 104.332C266.675 103.916 266.803 103.448 266.82 103.324C266.837 103.2 266.3 102.378 265.916 101.714C265.279 100.725 264.742 99.6698 264.312 98.5662C264.005 97.3901 265.353 96.9479 267.212 96.3378C268.34 95.9939 269.447 95.5835 270.53 95.1086C271.647 94.5956 271.698 94.2242 271.698 94.2242C271.698 93.4726 268.611 92.2964 266.777 91.5713C263.221 90.2094 262.172 90.8373 260.722 91.6951L260.423 91.8719C258.445 93.0304 257.6 91.8719 257.566 91.8719L257.507 91.7481C257.507 91.6332 256.602 88.936 259.306 86.4864C262.01 84.0369 265.276 83.3913 267.067 84.0015C268.5 84.5056 268.27 86.0001 268.167 86.6545C269.651 86.9994 274.811 88.5646 278.086 90.8904C281.848 93.5433 284.909 99.9635 283.511 107.011C282.112 114.059 272.79 119.684 272.423 119.923L272.287 120.002ZM269.728 114.873C269.754 114.894 269.774 114.922 269.788 114.953C270.038 115.383 270.263 115.829 270.462 116.288C270.794 116.995 271.639 118.835 272.091 119.091C273.276 118.34 281.472 112.981 282.658 106.852C283.988 100.176 281.114 94.1446 277.592 91.642C274.112 89.1659 268.287 87.5388 267.732 87.4769H267.536L267.391 87.3C267.221 87.0966 267.263 86.8402 267.315 86.4953C267.46 85.611 267.417 85.0627 266.786 84.8416C265.506 84.3995 262.419 84.8416 259.86 87.1497C259.238 87.6266 258.758 88.2769 258.477 89.0251C258.196 89.7733 258.126 90.5887 258.274 91.3767C258.411 91.474 258.905 91.7481 259.98 91.1114L260.27 90.9346C261.865 89.9972 263.118 89.2544 267.05 90.7489C270.462 92.0488 272.483 92.9243 272.526 94.18C272.526 95.0643 271.579 95.5949 270.82 95.9487C269.706 96.4378 268.567 96.8629 267.408 97.2221C266.274 97.5935 264.986 98.018 265.08 98.3628C265.493 99.3885 265.999 100.371 266.59 101.299C267.4 102.705 267.613 103.067 267.613 103.377C267.554 103.799 267.454 104.214 267.315 104.615C267.076 105.446 266.462 107.657 266.641 108.073C267.11 108.315 267.641 108.399 268.159 108.311C268.27 108.311 268.355 108.232 268.372 108.179C269.053 106.973 270.05 105.992 271.246 105.349C272.014 105.084 273.464 105.765 274.428 106.569C274.851 106.858 275.198 107.252 275.436 107.715C275.674 108.179 275.797 108.697 275.792 109.222C275.562 111.247 272.381 114.113 271.076 114.528L270.615 114.652C270.316 114.694 270.021 114.768 269.737 114.873H269.728Z" fill="#113C64"/>
<path d="M255.587 103.899C255.467 104.703 255.05 105.296 254.649 105.234C254.248 105.172 254.018 104.473 254.137 103.669C254.256 102.864 254.674 102.271 255.075 102.333C255.476 102.395 255.706 103.094 255.587 103.899Z" fill="#113C64"/>
<path d="M257.216 100.856C257.149 100.858 257.084 100.843 257.024 100.812C256.965 100.781 256.913 100.736 256.875 100.68C256.73 100.452 256.544 100.256 256.325 100.104C256.107 99.9524 255.862 99.8474 255.604 99.7953C255.075 99.751 254.549 99.9048 254.12 100.229C254.03 100.292 253.92 100.317 253.813 100.299C253.706 100.281 253.609 100.222 253.543 100.133C253.477 100.044 253.446 99.9318 253.456 99.8198C253.467 99.7078 253.518 99.6041 253.6 99.53C254.205 99.057 254.961 98.839 255.715 98.9198C256.087 98.9837 256.443 99.1266 256.76 99.3397C257.077 99.5527 257.349 99.8312 257.557 100.158C257.59 100.205 257.614 100.258 257.627 100.315C257.64 100.371 257.643 100.43 257.634 100.488C257.625 100.545 257.606 100.6 257.576 100.65C257.547 100.7 257.509 100.743 257.463 100.777C257.392 100.832 257.305 100.86 257.216 100.856Z" fill="#113C64"/>
<path d="M252.951 114.174C252.264 114.184 251.58 114.085 250.921 113.883C250.816 113.844 250.729 113.764 250.679 113.66C250.63 113.556 250.622 113.436 250.657 113.325C250.696 113.215 250.774 113.125 250.876 113.073C250.978 113.022 251.095 113.014 251.203 113.051C252.888 113.496 254.671 113.308 256.235 112.521C256.285 112.496 256.34 112.481 256.395 112.478C256.451 112.475 256.507 112.484 256.559 112.504C256.612 112.523 256.66 112.554 256.701 112.593C256.742 112.633 256.775 112.68 256.798 112.733C256.822 112.786 256.836 112.843 256.839 112.902C256.842 112.96 256.834 113.018 256.815 113.074C256.796 113.129 256.766 113.179 256.728 113.223C256.69 113.266 256.644 113.301 256.593 113.325C255.453 113.879 254.21 114.168 252.951 114.174Z" fill="#113C64"/>
<path d="M252.448 114.121C252.448 114.121 251.928 116.182 252.866 116.73C253.804 117.278 255.595 113.573 255.595 113.573L252.448 114.121Z" fill="#113C64"/>
<path d="M253.071 117.225C252.928 117.226 252.787 117.189 252.661 117.119C251.467 116.42 251.979 114.254 252.039 114.006C252.061 113.924 252.104 113.85 252.165 113.793C252.225 113.735 252.299 113.695 252.38 113.679L255.527 113.14C255.605 113.127 255.684 113.135 255.758 113.165C255.831 113.194 255.896 113.244 255.945 113.308C255.985 113.379 256.005 113.46 256.005 113.542C256.005 113.624 255.985 113.705 255.945 113.776C255.698 114.28 254.427 116.827 253.335 117.181C253.249 117.206 253.16 117.221 253.071 117.225ZM252.806 114.501C252.695 115.129 252.653 116.102 253.079 116.341C253.361 116.341 254.086 115.456 254.785 114.156L252.806 114.501Z" fill="#113C64"/>
<path d="M255.911 123.477L260.422 122.929L256.96 128.474L255.911 123.477Z" fill="#113C64"/>
<path d="M256.959 128.916H256.882C256.8 128.902 256.723 128.862 256.662 128.802C256.601 128.742 256.559 128.665 256.541 128.58L255.509 123.566C255.497 123.505 255.497 123.442 255.509 123.382C255.52 123.321 255.544 123.263 255.578 123.212C255.613 123.163 255.658 123.122 255.709 123.092C255.761 123.061 255.817 123.042 255.876 123.035L260.388 122.487C260.47 122.478 260.552 122.493 260.626 122.53C260.7 122.568 260.763 122.626 260.806 122.699C260.849 122.769 260.872 122.85 260.872 122.933C260.872 123.017 260.849 123.098 260.806 123.168L257.343 128.713C257.304 128.78 257.247 128.835 257.179 128.871C257.111 128.907 257.035 128.922 256.959 128.916ZM256.43 123.858L257.155 127.342L259.569 123.477L256.43 123.858Z" fill="#113C64"/>
<path d="M233.207 83.6565L219.527 88.193L221.48 94.7635L236.823 88.6971L233.207 83.6565Z" fill="white"/>
<path d="M221.207 95.3385L218.998 87.9014L233.335 83.1261L237.471 88.883L221.207 95.3385ZM220.056 88.4762L221.761 94.1801L236.158 88.4939L233.062 84.1784L220.056 88.4762Z" fill="#113C64"/>
<path d="M299.432 97.5403L295.535 103.35L310.4 112.193L312.234 104.756L299.432 97.5403Z" fill="white"/>
<path d="M310.674 112.866L294.921 103.465L299.305 96.9301L312.729 104.5L310.674 112.866ZM296.175 103.209L310.094 111.513L311.706 104.977L299.57 98.1593L296.175 103.209Z" fill="#113C64"/>
<path d="M278.486 138.396H278.427C278.314 138.378 278.213 138.316 278.144 138.221C278.075 138.127 278.045 138.009 278.06 137.892C278.776 132.718 277.352 124.477 277.335 124.397C277.324 124.339 277.324 124.28 277.335 124.223C277.346 124.165 277.368 124.111 277.4 124.062C277.432 124.013 277.473 123.972 277.52 123.94C277.567 123.908 277.62 123.886 277.676 123.875C277.732 123.865 277.788 123.866 277.843 123.879C277.898 123.892 277.95 123.916 277.996 123.95C278.042 123.983 278.081 124.026 278.111 124.076C278.141 124.125 278.162 124.18 278.171 124.238C278.23 124.583 279.638 132.701 278.904 138.015C278.89 138.12 278.84 138.216 278.763 138.286C278.687 138.356 278.588 138.395 278.486 138.396Z" fill="#113C64"/>
<path d="M274.103 147.495C274.055 147.504 274.006 147.504 273.958 147.495C273.851 147.455 273.764 147.374 273.715 147.268C273.666 147.162 273.658 147.041 273.694 146.929C275.118 142.747 275.621 130.012 275.621 129.88C275.621 129.821 275.632 129.763 275.655 129.709C275.678 129.655 275.711 129.606 275.753 129.566C275.794 129.526 275.844 129.496 275.897 129.477C275.951 129.458 276.008 129.45 276.065 129.455C276.121 129.458 276.176 129.471 276.226 129.496C276.277 129.52 276.323 129.554 276.361 129.597C276.399 129.64 276.429 129.69 276.448 129.744C276.467 129.799 276.476 129.857 276.474 129.915C276.474 130.446 275.971 142.915 274.504 147.221C274.471 147.303 274.416 147.373 274.344 147.422C274.273 147.471 274.189 147.497 274.103 147.495Z" fill="#113C64"/>
<path d="M245.6 139.156C245.487 139.156 245.379 139.11 245.299 139.027C245.219 138.944 245.174 138.831 245.174 138.714C245.174 134.381 249.054 123.973 249.225 123.53C249.265 123.422 249.345 123.334 249.447 123.286C249.549 123.238 249.666 123.234 249.771 123.274C249.824 123.295 249.872 123.326 249.913 123.366C249.954 123.406 249.987 123.454 250.01 123.508C250.033 123.561 250.046 123.619 250.047 123.677C250.049 123.736 250.039 123.794 250.018 123.849C249.975 123.955 246.027 134.549 246.027 138.714C246.025 138.831 245.979 138.942 245.899 139.024C245.82 139.107 245.713 139.154 245.6 139.156Z" fill="#113C64"/>
<path d="M248.277 147.495C248.179 147.494 248.085 147.458 248.009 147.394C247.933 147.329 247.881 147.241 247.859 147.142C246.879 142.304 249.685 128.571 249.804 128.014C249.831 127.899 249.898 127.8 249.994 127.735C250.089 127.671 250.204 127.647 250.316 127.669C250.371 127.681 250.423 127.705 250.469 127.739C250.515 127.772 250.554 127.815 250.584 127.864C250.615 127.913 250.635 127.968 250.644 128.026C250.654 128.084 250.652 128.143 250.64 128.199C250.64 128.332 247.749 142.304 248.695 146.956C248.707 147.013 248.707 147.071 248.696 147.128C248.685 147.185 248.664 147.24 248.633 147.288C248.602 147.337 248.563 147.378 248.516 147.411C248.47 147.443 248.418 147.466 248.363 147.478L248.277 147.495Z" fill="#113C64"/>
<path d="M238.777 137.839C238.665 137.836 238.557 137.789 238.478 137.707C238.398 137.624 238.353 137.513 238.351 137.397V121.532C238.351 121.415 238.396 121.302 238.475 121.219C238.555 121.136 238.664 121.09 238.777 121.09C238.889 121.092 238.997 121.139 239.076 121.222C239.156 121.304 239.201 121.415 239.203 121.532V137.397C239.203 137.514 239.159 137.626 239.079 137.709C238.999 137.792 238.89 137.839 238.777 137.839Z" fill="#113C64"/>
<path d="M107.962 117.889C109.352 116.904 110.492 115.585 111.285 114.046C112.077 112.506 112.5 110.791 112.517 109.045C112.405 106.095 111.196 103.305 109.143 101.258C107.09 99.2123 104.354 98.0694 101.506 98.0694C98.6587 98.0694 95.9218 99.2123 93.8692 101.258C91.8166 103.305 90.6075 106.095 90.4955 109.045C90.4916 111.148 91.0848 113.206 92.2013 114.961C86.8793 117.013 83.1182 121.956 83.1182 127.74C83.1182 133.32 86.6149 138.113 91.6469 140.288C90.5136 141.097 89.5858 142.178 88.9428 143.439C88.2997 144.701 87.9605 146.104 87.9539 147.531C88.0777 149.953 89.0927 152.233 90.7897 153.902C92.4867 155.571 94.7365 156.501 97.0754 156.501C99.4143 156.501 101.664 155.571 103.361 153.902C105.058 152.233 106.073 149.953 106.197 147.531C106.191 146.197 105.893 144.883 105.328 143.685C104.762 142.488 103.943 141.438 102.93 140.616C108.397 138.626 112.312 133.621 112.312 127.74C112.301 125.872 111.907 124.028 111.157 122.33C110.408 120.632 109.319 119.118 107.962 117.889Z" fill="#113C64"/>
<path d="M97.0977 156.958C94.6253 157.003 92.2357 156.034 90.4485 154.262C88.6613 152.49 87.6211 150.058 87.5541 147.496C87.5567 146.126 87.8535 144.774 88.4229 143.538C88.9924 142.302 89.8202 141.213 90.8462 140.35C88.4732 139.261 86.4489 137.493 85.0108 135.253C83.5727 133.013 82.7804 130.395 82.7268 127.704C82.7268 122.054 86.198 117.004 91.6052 114.705C90.603 112.987 90.0722 111.018 90.07 109.01C90.1843 105.944 91.4392 103.043 93.5716 100.916C95.7039 98.7887 98.548 97.6005 101.507 97.6005C104.466 97.6005 107.31 98.7887 109.443 100.916C111.575 103.043 112.83 105.944 112.944 109.01C112.931 110.739 112.535 112.442 111.787 113.988C111.039 115.533 109.958 116.88 108.629 117.924C109.917 119.18 110.945 120.695 111.65 122.377C112.355 124.058 112.723 125.871 112.731 127.704C112.731 133.32 109.166 138.475 103.784 140.73C104.684 141.594 105.402 142.64 105.895 143.804C106.388 144.968 106.645 146.224 106.65 147.496C106.583 150.06 105.541 152.493 103.752 154.265C101.963 156.038 99.5715 157.005 97.0977 156.958ZM101.507 98.4689C98.7539 98.412 96.0915 99.4899 94.104 101.466C92.1165 103.442 90.9663 106.155 90.9059 109.01C90.92 111.033 91.5137 113.006 92.6116 114.678L92.9101 115.138L92.4069 115.342C87.0594 117.402 83.5967 122.257 83.5967 127.722C83.6629 130.365 84.4823 132.928 85.9515 135.089C87.4207 137.25 89.474 138.911 91.8526 139.864L92.5604 140.173L91.9378 140.633C90.8582 141.399 89.9742 142.425 89.362 143.624C88.7499 144.822 88.428 146.157 88.424 147.513C88.5447 149.82 89.5134 151.991 91.1308 153.579C92.7482 155.168 94.8913 156.053 97.119 156.053C99.3468 156.053 101.49 155.168 103.107 153.579C104.725 151.991 105.693 149.82 105.814 147.513C105.807 146.246 105.524 144.998 104.986 143.86C104.449 142.722 103.671 141.725 102.71 140.943L102.113 140.447L102.838 140.182C108.339 138.175 111.895 133.285 111.895 127.722C111.883 125.923 111.503 124.146 110.78 122.51C110.057 120.875 109.006 119.417 107.699 118.233L107.298 117.862L107.742 117.544C109.074 116.591 110.166 115.319 110.926 113.838C111.686 112.356 112.091 110.706 112.108 109.028C112.052 106.17 110.904 103.452 108.916 101.472C106.928 99.4924 104.263 98.412 101.507 98.4689Z" fill="#113C64"/>
<path d="M105.779 268.93L104.611 322.874C104.611 322.874 101.122 327.87 99.6299 330.629C98.1374 333.388 97.4636 336.492 97.9668 338.208C98.47 339.923 102.453 340.454 104.79 338.898C107.127 337.341 109.105 328.56 109.609 326.667C110.112 324.775 110.768 320.291 110.768 320.291L119.417 271L105.779 268.93Z" fill="white"/>
<path d="M101.447 340.268C100.692 340.275 99.9419 340.147 99.2295 339.888C98.8462 339.791 98.4911 339.6 98.1942 339.33C97.8973 339.061 97.6673 338.721 97.5238 338.34C96.9779 336.466 97.6602 333.282 99.2295 330.382C100.611 327.835 103.63 323.475 104.168 322.697L105.336 268.4L119.903 270.602L111.178 320.345C111.178 320.513 110.513 324.855 110.01 326.756C109.959 326.942 109.899 327.189 109.822 327.49C108.628 332.274 106.991 337.925 105.012 339.242C103.941 339.928 102.705 340.284 101.447 340.268ZM106.189 269.443L105.038 323.024L104.961 323.13C104.961 323.183 101.464 328.144 99.9971 330.841C98.5302 333.539 97.899 336.457 98.3766 338.084C98.4835 338.326 98.6418 338.54 98.8397 338.71C99.0376 338.88 99.27 339.002 99.5195 339.066C100.348 339.346 101.224 339.443 102.091 339.35C102.957 339.257 103.796 338.976 104.551 338.526C106.505 337.226 108.381 329.754 108.995 327.295C109.072 326.986 109.14 326.738 109.191 326.552C109.677 324.695 110.334 320.265 110.342 320.221L118.871 271.371L106.189 269.443Z" fill="#113C64"/>
<path d="M105.447 332.504C100.952 333.388 100.329 330.505 100.329 329.444C100.082 329.86 99.8517 330.258 99.6641 330.611C98.163 333.371 97.4978 336.474 98.001 338.19C98.5042 339.906 102.487 340.436 104.824 338.88C107.161 337.323 109.139 328.542 109.643 326.65C109.6 326.667 107.963 332.062 105.447 332.504Z" fill="#113C64"/>
<path d="M101.447 340.268C100.692 340.275 99.9419 340.147 99.2295 339.888C98.8462 339.791 98.4911 339.6 98.1942 339.33C97.8973 339.061 97.6673 338.721 97.5238 338.34C96.9779 336.466 97.6602 333.282 99.2295 330.382C99.4257 330.028 99.656 329.621 99.9118 329.205L100.611 328.029L100.696 329.409C100.709 329.819 100.804 330.223 100.976 330.593C101.148 330.963 101.393 331.292 101.694 331.558C102.487 332.203 103.716 332.371 105.345 332.062C107.161 331.717 108.756 327.932 109.165 326.499L110.018 326.756C109.967 326.942 109.907 327.189 109.831 327.49C108.637 332.274 106.999 337.925 105.021 339.242C103.948 339.93 102.708 340.285 101.447 340.268ZM100.099 330.665L99.9971 330.841C98.5728 333.494 97.899 336.457 98.3766 338.084C98.4835 338.326 98.6418 338.54 98.8397 338.71C99.0376 338.88 99.27 339.002 99.5195 339.066C100.348 339.346 101.224 339.443 102.091 339.35C102.957 339.257 103.796 338.976 104.551 338.526C105.856 337.642 107.11 334.025 108.014 330.983C107.451 331.942 106.563 332.649 105.524 332.964C103.639 333.318 102.189 333.088 101.2 332.283C100.688 331.867 100.306 331.304 100.099 330.665Z" fill="#113C64"/>
<path d="M144.27 329.011L138.3 271.963L150.965 271.583L150.556 324.925C150.556 324.925 155.596 329.258 157.319 330.408C159.042 331.558 163.101 335.254 163.101 336.271C163.101 337.288 160.022 337.801 156.457 337.155C152.892 336.51 146.974 334.361 145.49 333.388C144.006 332.415 144.389 331.434 144.27 329.011Z" fill="white"/>
<path d="M159.468 337.889C158.43 337.882 157.395 337.787 156.372 337.606C152.807 336.97 146.803 334.777 145.284 333.707C143.928 332.769 143.92 331.85 143.903 330.329C143.903 329.948 143.903 329.533 143.903 329.046L137.865 271.566L151.434 271.159L151.024 324.757C151.877 325.491 156.082 329.064 157.591 330.063C158.871 330.948 163.562 334.865 163.562 336.298C163.559 336.455 163.522 336.609 163.452 336.749C163.383 336.888 163.283 337.009 163.161 337.102C162.547 337.606 161.139 337.889 159.468 337.889ZM138.751 272.37L144.722 328.967C144.722 329.471 144.722 329.913 144.722 330.302C144.722 331.735 144.722 332.274 145.728 332.955C147.169 333.954 153.097 336.103 156.508 336.713C159.417 337.235 161.907 336.952 162.555 336.386C162.615 336.333 162.649 336.289 162.649 336.253C162.589 335.511 158.939 332.018 157.063 330.762C155.357 329.612 150.47 325.456 150.24 325.253L150.086 325.12L150.487 272.017L138.751 272.37Z" fill="#113C64"/>
<path d="M147.587 329.391C146.339 328.435 145.14 327.41 143.996 326.322L144.269 328.975C144.389 331.398 144.022 332.292 145.497 333.309C146.973 334.326 152.875 336.492 156.44 337.129C160.005 337.766 163.084 337.261 163.084 336.245C163.084 335.228 159.024 331.531 157.301 330.381L153.369 332.548C151.337 331.717 149.398 330.658 147.587 329.391Z" fill="#113C64"/>
<path d="M159.468 337.889C158.43 337.882 157.395 337.787 156.372 337.606C152.807 336.97 146.803 334.777 145.285 333.707C143.929 332.769 143.92 331.85 143.903 330.328C143.903 329.948 143.903 329.524 143.903 329.029L143.511 325.217L144.364 325.995C145.493 327.075 146.681 328.087 147.92 329.029C149.644 330.253 151.491 331.279 153.43 332.088L157.413 329.895L157.617 330.037C158.897 330.921 163.587 334.839 163.587 336.271C163.585 336.428 163.548 336.583 163.478 336.722C163.409 336.862 163.309 336.983 163.187 337.076C162.547 337.606 161.14 337.889 159.468 337.889ZM144.534 327.41L144.696 328.958C144.696 329.488 144.696 329.931 144.696 330.32C144.696 331.752 144.696 332.292 145.703 332.973C147.144 333.972 153.071 336.121 156.483 336.731C159.391 337.253 161.882 336.97 162.53 336.404C162.59 336.351 162.624 336.306 162.624 336.271C162.572 335.555 159.212 332.274 157.242 330.921L153.361 333.061L153.182 332.99C151.115 332.139 149.144 331.053 147.306 329.754C146.513 329.135 145.575 328.356 144.534 327.41Z" fill="#113C64"/>
<path d="M118.631 179.128C118.631 179.128 108.107 194.957 106.043 202.235C103.979 209.513 105.42 271.539 105.42 271.539C105.42 271.539 123.331 274.537 131.859 274.325C138.42 274.016 144.961 273.363 151.459 272.37C151.459 272.37 153.105 257.611 153.522 248.414C153.94 239.217 159.296 214.81 156.618 201.996C153.94 189.182 146.384 177.881 146.384 177.881L118.631 179.128Z" fill="#113C64"/>
<path d="M130.939 274.776C122.231 274.776 105.532 272.008 105.353 271.981L105.003 271.919V271.557C104.944 269.019 103.588 209.363 105.643 202.111C107.698 194.86 117.856 179.526 118.283 178.88L118.402 178.695L146.615 177.456L146.743 177.66C146.82 177.766 154.342 189.156 156.977 201.926C158.862 210.91 156.875 225.139 155.272 236.564C154.589 241.446 154.001 245.664 153.882 248.458C153.472 257.567 151.826 272.335 151.809 272.45V272.786L151.485 272.839C151.374 272.839 140.218 274.555 131.869 274.767L130.939 274.776ZM105.839 271.159C108.398 271.575 124.159 274.068 131.818 273.883C138.252 273.591 144.668 272.965 151.041 272.008C151.297 269.753 152.696 256.727 153.071 248.423C153.199 245.584 153.788 241.349 154.47 236.441C155.971 225.678 158.018 210.946 156.176 202.111C153.737 190.438 147.178 179.933 146.163 178.358L118.871 179.561C117.694 181.33 108.364 195.656 106.462 202.359C104.551 209.195 105.728 266.012 105.839 271.159Z" fill="#113C64"/>
<path d="M177.822 112.83C177.822 112.83 177.012 150.051 176.824 152.191C176.636 154.331 148.261 150.051 148.261 150.051C148.261 150.051 148.261 163.316 147.886 166.8C147.511 170.284 147.135 173.035 147.135 174.396C147.183 175.623 146.924 176.841 146.385 177.934C145.822 179.101 143.57 181.241 134.547 182.806C125.524 184.372 120.27 181.436 119.519 180.463C118.769 179.49 118.197 175.183 118.197 175.183L111.477 158.381L102.709 175.714L100.151 190.809L98.1036 207.656C98.3718 208.424 98.7147 209.162 99.1271 209.858C99.98 211.299 102.641 214.332 102.786 214.863C102.914 215.844 102.963 216.835 102.931 217.825C102.931 218.657 102.931 223.131 102.786 223.821C102.641 224.511 101.984 223.131 101.984 223.131C101.83 223.705 101.582 224.246 101.251 224.732C100.816 225.262 100.517 223.971 100.517 223.971C100.082 225.413 99.7923 225.112 99.5706 225.262C99.3488 225.413 98.9821 222.38 98.9821 222.38C98.9821 222.38 98.8371 223.211 98.6921 223.971C98.674 224.173 98.5988 224.365 98.4758 224.522C98.3529 224.679 98.1878 224.795 98.0013 224.856C97.2508 224.237 97.5493 218.807 97.5493 218.807C97.5493 218.807 95.4512 216.782 94.7007 216.012C93.9501 215.243 93.0546 211.193 93.0546 211.193C93.0546 211.193 91.8606 177.35 91.8606 176.572C91.8606 175.794 102.948 142.888 102.948 141.8C102.948 140.713 117.924 134.965 117.924 134.965L135.442 131.082C135.442 131.082 146.265 130.092 147.297 130.631C148.329 131.171 167.468 139.139 167.468 139.139L173.088 109.868C173.088 109.868 173.481 104.243 173.864 103.677C174.746 102.288 175.483 100.806 176.065 99.2558C176.193 98.4511 176.449 96.4437 177.225 96.709C178.001 96.9743 178.521 98.3185 178.385 99.362C178.248 100.405 177.097 102.307 177.097 102.846C177.097 103.386 184.338 101.237 183.817 104.615C183.297 107.993 182.913 110.513 182.265 111.044C181.617 111.574 177.822 112.83 177.822 112.83Z" fill="white"/>
<path d="M99.6043 225.775L99.3569 225.669C99.212 225.599 99.067 225.528 98.8879 224.644C98.796 224.805 98.6728 224.945 98.526 225.055C98.3791 225.164 98.2119 225.241 98.035 225.28L97.8388 225.324L97.6768 225.192C96.8836 224.529 96.9689 220.77 97.0627 219.002C96.568 218.524 94.9902 217.003 94.3506 216.349C93.5574 215.526 92.7472 212.015 92.5936 211.326C92.5339 209.858 91.3826 177.377 91.3826 176.598C91.3826 176.227 92.4743 172.822 96.2525 161.309C98.9817 152.961 102.385 142.57 102.461 141.809C102.461 141.482 102.461 140.43 117.711 134.576L135.288 130.676C137.907 130.437 146.376 129.712 147.425 130.26C148.346 130.738 164.124 137.335 167.092 138.555L172.61 109.806C172.755 107.71 173.062 104.022 173.463 103.465C174.304 102.134 175.012 100.718 175.578 99.2383V99.0703C175.757 97.9383 175.979 96.7976 176.576 96.4173C176.681 96.3532 176.797 96.313 176.918 96.2993C177.038 96.2855 177.16 96.2986 177.275 96.3377C178.307 96.7003 178.87 98.2921 178.725 99.4947C178.545 100.29 178.258 101.055 177.872 101.767C177.753 102.015 177.617 102.325 177.514 102.563L178.367 102.475C180.073 102.289 182.632 101.997 183.698 103.12C183.891 103.333 184.03 103.593 184.103 103.875C184.176 104.157 184.18 104.454 184.116 104.739V104.836C183.51 108.762 183.152 110.841 182.41 111.442C181.047 112.175 179.619 112.767 178.145 113.211C178.06 117.075 177.293 150.237 177.148 152.289C177.139 152.389 177.109 152.486 177.061 152.573C177.012 152.66 176.946 152.735 176.866 152.793C174.887 154.42 153.975 151.422 148.593 150.617C148.593 153.12 148.593 163.767 148.218 166.906C148.107 167.923 148.005 168.87 147.903 169.736C147.664 171.85 147.468 173.512 147.468 174.45C147.511 175.734 147.238 177.01 146.674 178.155C145.949 179.658 143.263 181.754 134.529 183.266C125.54 184.823 120.031 181.94 119.092 180.772C118.316 179.764 117.788 176.006 117.694 175.352L111.348 159.505L103.024 175.909L100.466 190.942L98.4273 207.665C98.689 208.368 99.0116 209.046 99.3911 209.69C100.046 210.717 100.767 211.698 101.549 212.626C102.152 213.273 102.668 214.002 103.084 214.792C103.234 215.813 103.288 216.847 103.246 217.878C103.246 220.319 103.246 223.361 103.093 223.971C103.077 224.104 103.021 224.227 102.931 224.323C102.842 224.419 102.725 224.482 102.598 224.502C102.504 224.502 102.282 224.502 101.975 224.175C101.843 224.492 101.671 224.789 101.464 225.059C101.388 225.168 101.283 225.252 101.161 225.299C101.04 225.346 100.908 225.355 100.781 225.324C100.647 225.286 100.526 225.209 100.432 225.103C100.36 225.251 100.257 225.38 100.129 225.479C100.002 225.579 99.8546 225.647 99.6981 225.678L99.6043 225.775ZM99.0499 219.461L99.3996 222.327C99.5019 223.167 99.6469 224.095 99.7663 224.661C99.9138 224.404 100.029 224.127 100.107 223.839L100.568 222.309L100.926 223.865C100.956 223.998 100.996 224.128 101.046 224.254C101.265 223.864 101.44 223.449 101.566 223.016L101.864 221.929L102.359 222.937L102.419 223.069C102.461 222.335 102.496 220.85 102.496 217.825C102.522 216.877 102.48 215.928 102.368 214.987C101.944 214.344 101.485 213.727 100.994 213.139C100.184 212.17 99.4344 211.148 98.7514 210.079C98.3362 209.363 97.9933 208.604 97.7279 207.815V207.727L99.7919 190.792L102.402 175.537L111.536 157.409L118.632 175.095C118.837 176.705 119.357 179.517 119.851 180.136C120.559 181.02 125.822 183.815 134.478 182.311C143.63 180.737 145.566 178.553 146.001 177.686C146.51 176.663 146.754 175.52 146.708 174.37C146.708 173.38 146.905 171.717 147.152 169.55C147.246 168.666 147.357 167.738 147.468 166.729C147.834 163.289 147.834 150.157 147.834 150.025V149.512L148.329 149.591C161.199 151.528 175.109 152.969 176.406 152.05C176.593 149.255 177.386 113.14 177.395 112.795V112.477L177.693 112.379C179.158 111.942 180.585 111.377 181.958 110.69C182.469 110.266 182.913 107.401 183.339 104.633V104.535C183.382 104.383 183.387 104.221 183.353 104.067C183.318 103.912 183.246 103.769 183.143 103.651C182.401 102.837 179.877 103.129 178.521 103.28C177.352 103.412 177.003 103.439 176.772 103.218L176.627 103.085V102.846C176.715 102.303 176.9 101.781 177.173 101.308C177.502 100.676 177.754 100.005 177.924 99.309C178.035 98.4247 177.591 97.2839 177.071 97.0982C176.977 97.1513 176.747 97.4873 176.491 99.1322V99.3002C175.901 100.922 175.137 102.471 174.214 103.916C173.835 105.873 173.604 107.857 173.523 109.85L167.774 139.722L167.297 139.519C166.512 139.201 148.124 131.56 147.092 130.994C146.453 130.702 140.679 130.994 135.459 131.498L117.992 135.372C111.297 137.945 104.005 141.075 103.348 141.88C103.186 142.871 101.319 148.672 97.0968 161.539C94.7685 168.657 92.3548 176.015 92.2781 176.572C92.2781 177.288 93.4636 210.795 93.4721 211.131C93.8047 212.564 94.5126 215.155 94.9988 215.65C95.7322 216.41 97.8132 218.418 97.8303 218.436L97.9753 218.577V218.78C97.8277 220.582 97.8849 222.396 98.1459 224.184C98.2075 224.08 98.2508 223.967 98.2738 223.848C98.4188 223.096 98.5638 222.265 98.5638 222.265L99.0499 219.461Z" fill="#113C64"/>
<path d="M100.935 223.989H100.082C100.082 223.989 100.201 220.788 100.201 220.107V217.949H101.054V220.107C101.054 220.77 100.943 223.857 100.935 223.989Z" fill="#113C64"/>
<path d="M102.286 217.33L101.434 217.35L101.562 223.141L102.414 223.12L102.286 217.33Z" fill="#113C64"/>
<path d="M99.4002 218.489H98.5474V222.38H99.4002V218.489Z" fill="#113C64"/>
<path d="M168.704 132.648L167.451 139.166C167.451 139.166 148.312 131.207 147.28 130.658C146.248 130.11 135.425 131.109 135.425 131.109L117.907 134.992C117.907 134.992 102.931 140.74 102.931 141.827C102.931 142.915 91.8435 175.821 91.8435 176.599C91.8435 176.864 91.98 180.843 92.1591 186.017L100.449 188.997L102.701 175.732L111.477 158.426L118.197 175.228C118.197 175.228 118.76 179.508 119.511 180.481C120.261 181.454 125.481 184.381 134.538 182.824C143.596 181.268 145.813 179.119 146.376 177.952C146.916 176.859 147.174 175.641 147.127 174.414C147.127 173.053 147.502 170.329 147.877 166.818C148.253 163.307 148.253 150.069 148.253 150.069C148.253 150.069 176.628 154.358 176.815 152.209C176.892 151.325 177.088 144.003 177.284 135.929L168.704 132.648Z" fill="white"/>
<path d="M100.791 189.545L91.7587 186.3V185.999C91.5455 179.809 91.4431 176.802 91.4431 176.563C91.4431 176.192 92.5348 172.787 96.313 161.273C99.0422 152.925 102.445 142.535 102.522 141.774C102.522 141.447 102.522 140.395 117.771 134.54L135.349 130.641C137.967 130.402 146.436 129.677 147.485 130.225C148.407 130.702 164.185 137.3 167.153 138.52L168.398 132.02L177.737 135.61V135.929C177.49 145.957 177.336 151.449 177.259 152.236C177.251 152.336 177.221 152.433 177.172 152.52C177.124 152.607 177.057 152.682 176.978 152.74C174.999 154.367 154.087 151.369 148.705 150.564C148.705 153.067 148.705 163.714 148.33 166.853C148.219 167.87 148.117 168.817 148.014 169.683C147.775 171.797 147.579 173.459 147.579 174.397C147.622 175.682 147.349 176.957 146.786 178.102C146.061 179.605 143.375 181.701 134.641 183.213C125.652 184.77 120.142 181.887 119.204 180.72C118.428 179.711 117.899 175.953 117.805 175.299L111.46 159.452L103.136 175.856L100.791 189.545ZM92.6115 185.707L100.159 188.422L102.368 175.546L111.537 157.409L118.633 175.095C118.837 176.705 119.358 179.517 119.852 180.136C120.56 181.02 125.822 183.815 134.479 182.311C143.63 180.737 145.566 178.544 146.001 177.686C146.511 176.663 146.755 175.52 146.709 174.37C146.709 173.38 146.905 171.717 147.153 169.551C147.247 168.666 147.358 167.738 147.468 166.73C147.835 163.29 147.835 150.158 147.835 150.025V149.512L148.33 149.592C161.2 151.528 175.11 152.97 176.406 152.05C176.449 151.325 176.568 147.911 176.858 136.194L169.029 133.179L167.775 139.723L167.298 139.519C166.513 139.201 148.125 131.56 147.093 130.994C146.462 130.702 140.68 130.994 135.46 131.498L117.993 135.372C111.298 137.945 104.006 141.076 103.349 141.88C103.187 142.871 101.319 148.663 97.0977 161.539C94.7693 168.657 92.3557 176.015 92.2789 176.572C92.2789 176.784 92.3813 179.844 92.6115 185.707Z" fill="#113C64"/>
<path d="M180.073 102.634C180.073 102.634 179.928 104.81 180.432 104.96C181.564 105.129 182.718 105.017 183.8 104.633C184.096 104.393 184.298 104.052 184.372 103.671C184.445 103.289 184.385 102.894 184.201 102.555C183.911 101.883 180.798 102.254 180.073 102.634Z" fill="white"/>
<path d="M181.377 105.473C181.023 105.488 180.668 105.458 180.32 105.384C179.757 105.216 179.535 104.288 179.646 102.599V102.351L179.868 102.236C181.198 101.755 182.626 101.639 184.013 101.9C184.133 101.933 184.245 101.993 184.341 102.075C184.437 102.158 184.514 102.261 184.567 102.378C184.804 102.815 184.877 103.328 184.772 103.818C184.666 104.307 184.39 104.739 183.996 105.031C183.163 105.37 182.271 105.521 181.377 105.473ZM180.618 104.588C181.614 104.701 182.622 104.599 183.578 104.288C184.09 103.978 183.987 103.191 183.808 102.776C183.493 102.51 181.36 102.687 180.482 102.979C180.443 103.508 180.489 104.04 180.618 104.553V104.588Z" fill="#113C64"/>
<path d="M184.269 104.73C184.452 104.876 184.587 105.079 184.653 105.309C184.718 105.54 184.713 105.786 184.636 106.012C184.564 106.371 184.397 106.701 184.153 106.966C183.908 107.23 183.597 107.418 183.254 107.507C182.674 107.657 180.431 107.507 180.15 106.985C179.868 106.463 179.715 105.031 180.431 104.96C181.147 104.889 184.269 104.73 184.269 104.73Z" fill="white"/>
<path d="M182.547 108.002C181.574 108.002 180.125 107.834 179.775 107.206C179.61 106.877 179.513 106.516 179.491 106.146C179.469 105.775 179.522 105.405 179.647 105.057C179.718 104.91 179.823 104.784 179.952 104.69C180.082 104.596 180.232 104.537 180.389 104.518C181.122 104.447 184.124 104.297 184.252 104.297H184.38L184.5 104.367C184.759 104.565 184.951 104.842 185.049 105.16C185.147 105.477 185.146 105.819 185.046 106.136C184.956 106.576 184.749 106.98 184.447 107.302C184.145 107.625 183.761 107.852 183.34 107.958C183.077 107.998 182.812 108.013 182.547 108.002ZM184.116 105.181C183.451 105.181 181.088 105.34 180.474 105.402C180.474 105.402 180.474 105.402 180.406 105.464C180.29 105.897 180.329 106.359 180.517 106.764C181.358 107.088 182.262 107.197 183.152 107.082C183.419 107.011 183.662 106.863 183.85 106.655C184.039 106.447 184.167 106.187 184.218 105.906C184.259 105.785 184.27 105.657 184.252 105.53C184.235 105.404 184.188 105.284 184.116 105.181Z" fill="#113C64"/>
<path d="M183.911 107.436C184.11 107.855 184.184 108.326 184.124 108.789C183.979 109.39 182.819 109.912 182.026 109.832C181.233 109.753 179.86 109.461 179.86 109.01C179.86 108.559 180.713 107.436 180.713 107.436H183.911Z" fill="white"/>
<path d="M182.163 110.283H181.967C181.19 110.213 179.408 109.947 179.408 109.019C179.573 108.33 179.902 107.695 180.363 107.171L180.491 107.003H184.15L184.261 107.25C184.516 107.758 184.606 108.338 184.517 108.904C184.346 109.656 183.144 110.283 182.163 110.283ZM180.278 108.939C180.833 109.207 181.432 109.363 182.043 109.399C182.352 109.418 182.661 109.363 182.946 109.239C183.232 109.114 183.486 108.924 183.689 108.683C183.727 108.411 183.694 108.133 183.596 107.878H180.909C180.666 108.205 180.463 108.561 180.303 108.939H180.278Z" fill="#113C64"/>
<path d="M183.11 109.833C183.11 109.833 183.834 109.612 183.689 110.363C183.545 111.115 182.837 112.017 182.171 112.017C181.506 112.017 179.86 111.336 180.005 110.664C180.068 110.292 180.245 109.951 180.508 109.691L183.11 109.833Z" fill="white"/>
<path d="M182.163 112.459C181.27 112.394 180.428 112.006 179.783 111.362C179.69 111.257 179.622 111.129 179.586 110.991C179.551 110.852 179.548 110.706 179.579 110.566C179.663 110.094 179.894 109.662 180.235 109.337L180.363 109.24L183.067 109.39C183.212 109.347 183.366 109.34 183.514 109.371C183.662 109.402 183.802 109.469 183.92 109.567C184.029 109.681 184.107 109.823 184.145 109.979C184.182 110.134 184.178 110.298 184.133 110.451C183.928 111.424 183.058 112.459 182.163 112.459ZM180.67 110.142C180.542 110.327 180.451 110.538 180.406 110.761C180.886 111.23 181.505 111.517 182.163 111.575C182.555 111.575 183.152 110.867 183.263 110.275H183.212H183.144H183.075L180.67 110.142Z" fill="#113C64"/>
<path d="M175.902 110.92L175.561 110.107C175.561 110.107 177.199 109.346 177.566 108.126C177.802 107.191 177.848 106.215 177.702 105.261L178.555 105.101C178.734 106.197 178.682 107.319 178.401 108.391C177.898 109.992 175.988 110.876 175.902 110.92Z" fill="#113C64"/>
<path d="M145.113 140.355L144.317 140.672L147.853 150.224L148.65 149.907L145.113 140.355Z" fill="#113C64"/>
<path d="M115.598 151.681L111.142 158.14L111.835 158.654L116.291 152.196L115.598 151.681Z" fill="#113C64"/>
<path d="M117.456 119.79L119.469 128.969L134.181 126.024L131.673 121.001L117.456 119.79Z" fill="white"/>
<path d="M119.136 129.491L116.91 119.295L131.938 120.577L134.82 126.352L119.136 129.491ZM118.002 120.268L119.793 128.448L133.549 125.706L131.417 121.417L118.002 120.268Z" fill="#113C64"/>
<path d="M125.318 132.957L133.506 161.742L129.156 164.51L123.647 133.479L125.318 132.957Z" fill="#1FC3F3"/>
<path d="M128.858 165.226L123.152 133.17L125.6 132.409L134.009 161.937L128.858 165.226ZM124.167 133.789L129.498 163.794L133.037 161.539L125.02 133.532L124.167 133.789Z" fill="#113C64"/>
<path d="M119.127 133.824L121.302 172.831L131.673 171.443L125.319 132.957L119.127 133.824Z" fill="#1FC3F3"/>
<path d="M120.901 173.327L118.684 133.435L125.669 132.454L132.168 171.815L120.901 173.327ZM119.579 134.204L121.703 172.327L131.178 171.054L124.961 133.444L119.579 134.204Z" fill="#113C64"/>
<path d="M136.014 124.123L116.117 128.111L117.456 135.734L137.021 131.401L136.014 124.123Z" fill="#1FC3F3"/>
<path d="M117.113 136.265L115.638 127.758L136.388 123.601L137.514 131.746L117.113 136.265ZM116.61 128.456L117.796 135.204L136.559 131.056L135.706 124.645L116.61 128.456Z" fill="#113C64"/>
<path d="M126.487 86.3272C126.487 86.3272 130.163 83.0287 133.506 83.9041C136.849 84.7796 139.357 89.7937 137.685 92.9153C136.014 96.037 130.666 94.8255 130.666 94.8255L125.984 88.7502L126.487 86.3272Z" fill="#113C64"/>
<path d="M132.986 95.5065C132.175 95.5087 131.367 95.4257 130.572 95.2589H130.427L125.523 88.9006L126.095 86.1239L126.205 86.0266C126.368 85.8851 130.095 82.5866 133.608 83.5063C134.607 83.8327 135.523 84.3864 136.289 85.1269C137.055 85.8675 137.651 86.7761 138.035 87.7864C138.431 88.6229 138.638 89.5426 138.638 90.4747C138.638 91.4068 138.431 92.3266 138.035 93.1631C137.02 95.082 134.751 95.5065 132.986 95.5065ZM130.905 94.4276C131.758 94.5868 135.962 95.2324 137.318 92.712C137.642 91.9882 137.804 91.198 137.792 90.4003C137.78 89.6026 137.595 88.818 137.25 88.1048C136.919 87.2199 136.402 86.4226 135.737 85.7709C135.072 85.1193 134.275 84.6296 133.404 84.3375C130.623 83.6212 127.485 86.1062 126.871 86.5837L126.444 88.653L130.905 94.4276Z" fill="#113C64"/>
<path d="M112.108 89.1042C112.108 89.1042 106.59 92.3939 105.421 97.4257C104.253 102.457 109.43 112.848 110.607 115.112C111.784 117.376 115.28 120.312 119.801 122.399C124.321 124.486 129.66 124.999 132.338 123.283C135.016 121.568 135.681 111.141 135.852 106.985C136.022 102.829 131.169 91.8987 130.163 89.6437C129.157 87.3886 120.969 82.516 112.108 89.1042Z" fill="white"/>
<path d="M127.911 124.689C125.05 124.636 122.229 123.977 119.621 122.752C115.289 120.754 111.511 117.756 110.24 115.28C108.722 112.344 103.835 102.369 105.02 97.2838C106.206 92.199 111.476 88.9447 111.894 88.6971C117.472 84.5496 122.521 85.089 125.037 85.7788C127.971 86.5835 130.035 88.2107 130.572 89.3957C132.773 94.3479 136.44 103.209 136.295 106.941C136.073 112.406 135.297 121.832 132.577 123.592C131.146 124.39 129.534 124.769 127.911 124.689ZM121.438 86.1944C118.156 86.2394 114.974 87.3703 112.355 89.4222C112.304 89.4222 106.982 92.6854 105.865 97.4607C104.73 102.369 109.95 112.795 110.982 114.838C112.176 117.146 115.792 119.993 119.971 121.912C124.551 124.026 129.66 124.397 132.107 122.796C133.813 121.682 135.067 115.722 135.425 106.879C135.527 104.288 133.472 98.0355 129.779 89.7406C129.404 88.9093 127.613 87.3794 124.807 86.6101C123.704 86.3351 122.572 86.2073 121.438 86.2298V86.1944Z" fill="#113C64"/>
<path d="M131.169 91.9693C130.726 90.9347 130.368 90.1123 130.163 89.6524C129.165 87.4063 120.969 82.5779 112.108 89.1395C112.108 89.1395 106.59 92.4292 105.421 97.461C104.329 102.157 108.781 111.548 110.325 114.599L112.108 110.982C112.108 110.982 115.28 109.072 114.615 107.339C113.95 105.606 110.103 103.527 112.611 98.4956C115.118 93.4638 123.903 87.813 131.169 91.9693Z" fill="#113C64"/>
<path d="M110.326 115.519L109.942 114.767C108.091 111.106 103.895 102.068 105.004 97.3194C106.207 92.1638 111.665 88.8565 111.895 88.715C117.447 84.5941 122.505 85.1247 125.021 85.8144C127.955 86.6192 130.019 88.2463 130.556 89.4313C130.752 89.8911 131.119 90.7136 131.562 91.7482L132.074 92.942L130.965 92.3142C129.579 91.5659 128.062 91.1159 126.504 90.9913C124.946 90.8667 123.38 91.07 121.899 91.589C118.138 92.774 114.471 95.6923 112.987 98.6636C111.281 102.201 112.765 104.084 114.002 105.614C114.406 106.068 114.745 106.581 115.008 107.135C115.742 109.028 113.089 110.849 112.45 111.256L110.326 115.519ZM121.413 86.2301C118.131 86.275 114.949 87.4059 112.33 89.4578C112.245 89.5197 106.923 92.7475 105.806 97.5228C104.825 101.759 108.595 110.133 110.3 113.591L111.759 110.628L111.87 110.558C112.612 110.116 114.624 108.586 114.198 107.471C113.97 107.004 113.683 106.57 113.345 106.18C112.1 104.633 110.215 102.289 112.228 98.2214C113.814 95.0556 117.686 91.9605 121.609 90.7047C124.437 89.7266 127.508 89.8206 130.275 90.97C130.053 90.4571 129.865 90.0857 129.746 89.7673C129.371 88.9361 127.58 87.4062 124.774 86.6369C123.683 86.3559 122.563 86.2192 121.439 86.2301H121.413Z" fill="#113C64"/>
<path d="M114.615 112.309C114.615 112.309 110.265 106.755 107.792 108.488C105.319 110.222 107.127 114.21 108.295 115.421C109.464 116.633 112.312 116.81 113.148 115.943" fill="white"/>
<path d="M111.298 116.96C110.083 116.998 108.896 116.574 107.963 115.766C106.729 114.372 106.063 112.538 106.104 110.646C106.139 110.146 106.286 109.661 106.531 109.228C106.777 108.796 107.115 108.428 107.519 108.152C110.325 106.216 114.76 111.813 114.948 112.052L114.283 112.609C113.14 111.15 109.788 107.648 107.997 108.886C107.695 109.088 107.442 109.36 107.26 109.681C107.078 110.002 106.971 110.363 106.948 110.735C106.922 112.367 107.499 113.949 108.56 115.156C109.634 116.262 112.193 116.315 112.824 115.678L113.43 116.306C112.824 116.794 112.062 117.028 111.298 116.96Z" fill="#113C64"/>
<path d="M128.662 111.212C128.553 111.212 128.448 111.169 128.369 111.092C128.29 111.015 128.242 110.909 128.235 110.796C128.232 110.738 128.239 110.68 128.258 110.625C128.276 110.57 128.305 110.519 128.342 110.476C128.379 110.432 128.424 110.397 128.475 110.371C128.525 110.346 128.58 110.331 128.636 110.328C129.666 110.304 130.682 110.075 131.63 109.656C130.938 108.877 130.156 108.191 129.301 107.613C128.762 107.255 128.264 106.833 127.817 106.357C127.263 105.597 127.698 102.475 127.903 101.166C127.921 101.049 127.983 100.944 128.076 100.874C128.169 100.805 128.284 100.776 128.397 100.795C128.51 100.814 128.612 100.878 128.679 100.974C128.746 101.071 128.774 101.19 128.756 101.308C128.448 103.191 128.278 105.455 128.508 105.827C128.917 106.216 129.353 106.574 129.813 106.897C131.408 108.108 132.457 108.948 132.508 109.656C132.518 109.758 132.506 109.861 132.472 109.958C132.438 110.054 132.383 110.141 132.312 110.213C131.57 110.991 129.165 111.186 128.696 111.212H128.662Z" fill="#113C64"/>
<path d="M126.428 115.077C125.51 115.019 124.613 114.771 123.79 114.347C122.966 113.923 122.233 113.332 121.635 112.609C121.581 112.516 121.562 112.405 121.581 112.298C121.599 112.191 121.655 112.094 121.737 112.026C121.819 111.958 121.922 111.924 122.027 111.928C122.132 111.933 122.232 111.977 122.308 112.052C122.402 112.185 124.867 115.245 128.168 113.821C128.272 113.779 128.388 113.781 128.491 113.825C128.594 113.87 128.677 113.954 128.722 114.06C128.743 114.114 128.753 114.171 128.752 114.229C128.751 114.288 128.74 114.345 128.717 114.398C128.695 114.452 128.663 114.5 128.623 114.541C128.583 114.581 128.535 114.613 128.483 114.634C127.833 114.921 127.134 115.071 126.428 115.077Z" fill="#113C64"/>
<path d="M122.973 107.648C123.529 107.648 123.98 106.951 123.98 106.092C123.98 105.232 123.529 104.535 122.973 104.535C122.417 104.535 121.967 105.232 121.967 106.092C121.967 106.951 122.417 107.648 122.973 107.648Z" fill="#113C64"/>
<path d="M132.338 103.315C132.338 104.199 131.886 104.88 131.331 104.88C130.777 104.88 130.333 104.182 130.333 103.315C130.333 102.448 130.777 101.759 131.331 101.759C131.886 101.759 132.338 102.457 132.338 103.315Z" fill="#113C64"/>
<path d="M118.129 104.624H118.002C117.948 104.607 117.897 104.579 117.854 104.541C117.811 104.504 117.775 104.458 117.749 104.406C117.722 104.354 117.706 104.298 117.702 104.239C117.697 104.181 117.703 104.122 117.72 104.067C117.72 103.943 118.692 101.016 123.093 100.467C123.206 100.453 123.32 100.487 123.41 100.559C123.499 100.632 123.557 100.739 123.571 100.857C123.584 100.974 123.552 101.092 123.482 101.185C123.412 101.278 123.309 101.338 123.196 101.352C119.332 101.838 118.539 104.314 118.53 104.341C118.5 104.425 118.445 104.498 118.374 104.549C118.302 104.599 118.216 104.626 118.129 104.624Z" fill="#113C64"/>
<path d="M128.662 100.291C128.559 100.292 128.459 100.254 128.381 100.185C128.296 100.106 128.244 99.9969 128.236 99.8796C128.228 99.7623 128.265 99.6465 128.338 99.5567C129.014 98.7825 129.945 98.2996 130.948 98.2037C131.43 98.1954 131.907 98.2945 132.349 98.4944C132.79 98.6942 133.185 98.9902 133.507 99.3622C133.547 99.4033 133.578 99.4522 133.6 99.506C133.622 99.5599 133.633 99.6177 133.633 99.6761C133.633 99.7345 133.622 99.7923 133.6 99.8461C133.578 99.9 133.547 99.9489 133.507 99.99C133.427 100.071 133.32 100.116 133.208 100.116C133.097 100.116 132.989 100.071 132.91 99.99C132.67 99.7176 132.379 99.4987 132.055 99.3467C131.731 99.1946 131.38 99.1126 131.025 99.1057C130.253 99.1986 129.539 99.5751 129.012 100.167C128.967 100.215 128.912 100.251 128.851 100.272C128.791 100.294 128.726 100.3 128.662 100.291Z" fill="#113C64"/>
</g>
<defs>
<linearGradient id="paint0_linear_20_14533" x1="62.6694" y1="324.62" x2="435.053" y2="149.119" gradientUnits="userSpaceOnUse">
<stop stop-color="#C4EFFC"/>
<stop offset="1" stop-color="#F6FAFC"/>
</linearGradient>
<clipPath id="clip0_20_14533">
<rect width="371" height="344" fill="white" transform="translate(0.5)"/>
</clipPath>
</defs>
</svg>
