<svg width="150" height="73" viewBox="0 0 150 73" fill="none" xmlns="http://www.w3.org/2000/svg">
<path d="M26.0629 15.9715V22.47H6.46794V15.9715H26.0629ZM9.14471 0.859985V38.4067H0.672607V0.859985H9.14471ZM31.9102 0.859985V38.4067H23.4641V0.859985H31.9102Z" fill="#003863"/>
<path d="M36.6141 24.7393V24.1977C36.6141 22.1519 36.9086 20.2694 37.4977 18.5502C38.0867 16.8139 38.953 15.3096 40.0965 14.0374C41.24 12.7652 42.6433 11.7767 44.3065 11.0719C45.9698 10.3498 47.8756 9.98878 50.0239 9.98878C52.2069 9.98878 54.13 10.3498 55.7933 11.0719C57.4738 11.7767 58.8858 12.7652 60.0293 14.0374C61.1728 15.3096 62.0391 16.8139 62.6281 18.5502C63.2172 20.2694 63.5117 22.1519 63.5117 24.1977V24.7393C63.5117 26.7679 63.2172 28.6504 62.6281 30.3867C62.0391 32.1059 61.1728 33.6102 60.0293 34.8996C58.8858 36.1717 57.4825 37.1603 55.8192 37.8651C54.156 38.57 52.2416 38.9224 50.0759 38.9224C47.9275 38.9224 46.0131 38.57 44.3325 37.8651C42.652 37.1603 41.24 36.1717 40.0965 34.8996C38.953 33.6102 38.0867 32.1059 37.4977 30.3867C36.9086 28.6504 36.6141 26.7679 36.6141 24.7393ZM44.7483 24.1977V24.7393C44.7483 25.8395 44.835 26.871 45.0082 27.8338C45.1988 28.7965 45.502 29.6389 45.9178 30.3609C46.3336 31.083 46.8794 31.6503 47.555 32.0629C48.2481 32.4583 49.0883 32.656 50.0759 32.656C51.0634 32.656 51.8951 32.4583 52.5707 32.0629C53.2464 31.6503 53.7922 31.083 54.208 30.3609C54.6238 29.6389 54.9183 28.7965 55.0916 27.8338C55.2822 26.871 55.3775 25.8395 55.3775 24.7393V24.1977C55.3775 23.1146 55.2822 22.1003 55.0916 21.1548C54.9183 20.1921 54.6238 19.3411 54.208 18.6018C53.7922 17.8626 53.2378 17.2867 52.5448 16.8741C51.8691 16.4615 51.0288 16.2552 50.0239 16.2552C49.0537 16.2552 48.2307 16.4615 47.555 16.8741C46.8794 17.2867 46.3336 17.8626 45.9178 18.6018C45.502 19.3411 45.1988 20.1921 45.0082 21.1548C44.835 22.1003 44.7483 23.1146 44.7483 24.1977Z" fill="#003863"/>
<path d="M84.2762 31.6761V10.5045H92.4364V38.4067H84.7959L84.2762 31.6761ZM85.1338 25.9771L87.3687 25.9255C87.3687 27.7994 87.1435 29.5271 86.693 31.1088C86.2599 32.6904 85.6015 34.0658 84.718 35.2348C83.8517 36.4038 82.7689 37.315 81.4694 37.9683C80.1874 38.6044 78.6887 38.9224 76.9735 38.9224C75.5875 38.9224 74.3141 38.7333 73.1533 38.3551C72.0098 37.9597 71.0223 37.3494 70.1906 36.5242C69.359 35.6818 68.718 34.6073 68.2675 33.3007C67.8171 31.977 67.5918 30.3953 67.5918 28.5558V10.5045H75.7001V28.6074C75.7001 29.3294 75.7867 29.9483 75.96 30.4641C76.1506 30.9627 76.4018 31.3753 76.7136 31.7019C77.0428 32.0285 77.4413 32.2692 77.9091 32.4239C78.3942 32.5787 78.9226 32.656 79.4944 32.656C80.9324 32.656 82.0585 32.3638 82.8728 31.7793C83.7044 31.1776 84.2848 30.3781 84.614 29.381C84.9605 28.3667 85.1338 27.2321 85.1338 25.9771Z" fill="#003863"/>
<path d="M112.681 30.6446C112.681 30.1289 112.517 29.6733 112.187 29.2779C111.875 28.8825 111.304 28.5214 110.472 28.1948C109.658 27.8681 108.506 27.5415 107.016 27.2149C105.612 26.9226 104.304 26.5444 103.092 26.0802C101.879 25.5988 100.822 25.0229 99.921 24.3524C99.02 23.6648 98.3184 22.8568 97.8159 21.9284C97.3135 20.9829 97.0623 19.9084 97.0623 18.705C97.0623 17.5359 97.3135 16.4271 97.8159 15.3784C98.3357 14.3297 99.0807 13.4013 100.051 12.5933C101.038 11.7853 102.234 11.1492 103.637 10.685C105.058 10.2209 106.669 9.98878 108.471 9.98878C110.949 9.98878 113.088 10.3756 114.89 11.1492C116.692 11.9057 118.078 12.9715 119.048 14.3469C120.018 15.705 120.504 17.2609 120.504 19.0144H112.395C112.395 18.2924 112.257 17.6649 111.979 17.1319C111.702 16.599 111.278 16.1864 110.706 15.8941C110.134 15.5847 109.381 15.43 108.445 15.43C107.717 15.43 107.076 15.5589 106.522 15.8168C105.985 16.0575 105.56 16.3927 105.249 16.8225C104.954 17.2523 104.807 17.7508 104.807 18.3182C104.807 18.7136 104.893 19.0746 105.067 19.4012C105.257 19.7107 105.543 20.0029 105.924 20.278C106.323 20.5359 106.834 20.768 107.457 20.9743C108.099 21.1806 108.878 21.3783 109.796 21.5674C111.754 21.9284 113.539 22.4356 115.15 23.0889C116.779 23.7421 118.078 24.6447 119.048 25.7965C120.036 26.9484 120.529 28.4699 120.529 30.3609C120.529 31.5987 120.244 32.7334 119.672 33.7649C119.117 34.7964 118.312 35.699 117.255 36.4726C116.198 37.2462 114.933 37.8479 113.461 38.2777C111.988 38.7075 110.325 38.9224 108.471 38.9224C105.82 38.9224 103.577 38.4496 101.74 37.5041C99.9036 36.5586 98.5176 35.3723 97.582 33.9454C96.6638 32.5013 96.2047 31.0228 96.2047 29.51H103.819C103.854 30.4383 104.088 31.1947 104.521 31.7793C104.971 32.3638 105.552 32.7936 106.262 33.0686C106.972 33.3265 107.769 33.4554 108.653 33.4554C109.537 33.4554 110.273 33.3351 110.862 33.0944C111.451 32.8537 111.901 32.5271 112.213 32.1145C112.525 31.6847 112.681 31.1947 112.681 30.6446Z" fill="#003863"/>
<path d="M138.305 38.9224C136.07 38.9224 134.069 38.57 132.302 37.8651C130.535 37.1603 129.036 36.1889 127.806 34.9511C126.593 33.6961 125.666 32.252 125.025 30.6188C124.384 28.9856 124.064 27.2407 124.064 25.3839V24.404C124.064 22.3238 124.358 20.4069 124.947 18.6534C125.537 16.8998 126.394 15.3784 127.52 14.089C128.664 12.7824 130.067 11.7767 131.73 11.0719C133.394 10.3498 135.291 9.98878 137.422 9.98878C139.414 9.98878 141.19 10.3154 142.749 10.9687C144.309 11.6048 145.625 12.5246 146.699 13.728C147.774 14.9142 148.588 16.3497 149.142 18.0345C149.714 19.7021 150 21.576 150 23.6562V26.957H127.338V21.7737H142.048V21.1548C142.048 20.1749 141.866 19.3153 141.502 18.576C141.155 17.8368 140.636 17.2695 139.943 16.8741C139.267 16.4615 138.409 16.2552 137.37 16.2552C136.382 16.2552 135.559 16.4615 134.901 16.8741C134.243 17.2867 133.714 17.8712 133.316 18.6276C132.934 19.3669 132.657 20.235 132.484 21.2322C132.311 22.2121 132.224 23.2694 132.224 24.404V25.3839C132.224 26.467 132.371 27.4555 132.666 28.3495C132.96 29.2435 133.394 30.0085 133.965 30.6446C134.537 31.2807 135.23 31.7793 136.044 32.1403C136.859 32.5013 137.786 32.6818 138.825 32.6818C140.107 32.6818 141.329 32.4411 142.489 31.9598C143.65 31.4612 144.655 30.6876 145.504 29.6389L149.298 33.9454C148.727 34.7706 147.921 35.57 146.881 36.3437C145.859 37.1001 144.629 37.719 143.191 38.2004C141.753 38.6817 140.124 38.9224 138.305 38.9224Z" fill="#003863"/>
<path d="M74.6266 68.3653C74.6266 67.9714 74.5644 67.6239 74.4399 67.3227C74.3231 67.0138 74.113 66.7358 73.8094 66.4887C73.5137 66.2415 73.1012 66.006 72.572 65.782C72.0505 65.5581 71.389 65.3302 70.5873 65.0985C69.7468 64.8514 68.988 64.5773 68.3108 64.2761C67.6337 63.9672 67.0539 63.6158 66.5714 63.2219C66.0888 62.828 65.7191 62.3762 65.4623 61.8665C65.2055 61.3568 65.0771 60.7738 65.0771 60.1173C65.0771 59.4609 65.2133 58.8546 65.4857 58.2986C65.7581 57.7425 66.1472 57.2599 66.6531 56.8506C67.1668 56.4335 67.7777 56.1092 68.486 55.8775C69.1942 55.6458 69.9842 55.53 70.8558 55.53C72.1322 55.53 73.2141 55.7732 74.1013 56.2598C74.9963 56.7386 75.6773 57.368 76.1443 58.148C76.6113 58.9203 76.8448 59.7466 76.8448 60.627H74.6033C74.6033 59.9938 74.4671 59.4338 74.1947 58.9473C73.9223 58.453 73.5098 58.0669 72.9572 57.7889C72.4046 57.5031 71.7042 57.3603 70.8558 57.3603C70.0542 57.3603 69.3927 57.48 68.8712 57.7194C68.3498 57.9588 67.9606 58.2831 67.7038 58.6925C67.4547 59.1018 67.3302 59.569 67.3302 60.0941C67.3302 60.4494 67.4041 60.7738 67.552 61.0672C67.7077 61.353 67.945 61.6194 68.2641 61.8665C68.591 62.1137 69.0035 62.3415 69.5016 62.55C70.0075 62.7585 70.6107 62.9593 71.3111 63.1524C72.2762 63.4227 73.109 63.7239 73.8094 64.056C74.5099 64.388 75.0858 64.7626 75.5372 65.1796C75.9964 65.5889 76.335 66.0562 76.5529 66.5813C76.7786 67.0988 76.8915 67.6857 76.8915 68.3421C76.8915 69.0295 76.7514 69.6512 76.4712 70.2072C76.191 70.7632 75.7902 71.2382 75.2687 71.6321C74.7473 72.0259 74.1208 72.331 73.3892 72.5472C72.6654 72.7557 71.8559 72.86 70.9609 72.86C70.1748 72.86 69.4004 72.7519 68.6377 72.5356C67.8828 72.3194 67.194 71.995 66.5714 71.5626C65.9565 71.1301 65.4623 70.5972 65.0887 69.9639C64.7229 69.3229 64.54 68.5815 64.54 67.7398H66.7815C66.7815 68.319 66.8944 68.8171 67.1201 69.2341C67.3458 69.6434 67.6532 69.9832 68.0423 70.2535C68.4393 70.5238 68.8868 70.7246 69.3849 70.8559C69.8908 70.9795 70.4161 71.0413 70.9609 71.0413C71.747 71.0413 72.4124 70.9331 72.9572 70.7169C73.502 70.5007 73.9145 70.1918 74.1947 69.7902C74.4827 69.3886 74.6266 68.9136 74.6266 68.3653Z" fill="#404040"/>
<path d="M78.8644 66.5002V66.2338C78.8644 65.3302 78.9967 64.4923 79.2614 63.72C79.526 62.94 79.9073 62.2643 80.4054 61.6928C80.9035 61.1136 81.5067 60.6656 82.215 60.349C82.9232 60.0246 83.7171 59.8625 84.5965 59.8625C85.4838 59.8625 86.2815 60.0246 86.9898 60.349C87.7058 60.6656 88.3128 61.1136 88.8109 61.6928C89.3168 62.2643 89.7021 62.94 89.9667 63.72C90.2313 64.4923 90.3636 65.3302 90.3636 66.2338V66.5002C90.3636 67.4038 90.2313 68.2417 89.9667 69.014C89.7021 69.7863 89.3168 70.4621 88.8109 71.0413C88.3128 71.6128 87.7097 72.0607 87.0014 72.385C86.301 72.7017 85.5071 72.86 84.6199 72.86C83.7326 72.86 82.9349 72.7017 82.2266 72.385C81.5184 72.0607 80.9113 71.6128 80.4054 71.0413C79.9073 70.4621 79.526 69.7863 79.2614 69.014C78.9967 68.2417 78.8644 67.4038 78.8644 66.5002ZM81.0242 66.2338V66.5002C81.0242 67.1258 81.0981 67.7166 81.246 68.2726C81.3939 68.821 81.6157 69.3075 81.9114 69.7322C82.215 70.157 82.5924 70.4929 83.0438 70.7401C83.4952 70.9795 84.0206 71.0992 84.6199 71.0992C85.2114 71.0992 85.7289 70.9795 86.1725 70.7401C86.624 70.4929 86.9975 70.157 87.2933 69.7322C87.589 69.3075 87.8108 68.821 87.9587 68.2726C88.1144 67.7166 88.1922 67.1258 88.1922 66.5002V66.2338C88.1922 65.616 88.1144 65.0329 87.9587 64.4846C87.8108 63.9285 87.5851 63.4381 87.2816 63.0134C86.9859 62.5809 86.6123 62.2411 86.1609 61.994C85.7173 61.7468 85.1958 61.6233 84.5965 61.6233C84.005 61.6233 83.4836 61.7468 83.0322 61.994C82.5885 62.2411 82.215 62.5809 81.9114 63.0134C81.6157 63.4381 81.3939 63.9285 81.246 64.4846C81.0981 65.0329 81.0242 65.616 81.0242 66.2338Z" fill="#404040"/>
<path d="M95.4186 54.8349V72.6283H93.2472V54.8349H95.4186Z" fill="#404040"/>
<path d="M106.614 69.7322V60.0941H108.786V72.6283H106.719L106.614 69.7322ZM107.023 67.091L107.922 67.0679C107.922 67.9019 107.832 68.6742 107.653 69.3847C107.482 70.0875 107.202 70.6976 106.813 71.215C106.424 71.7325 105.914 72.1379 105.283 72.4314C104.653 72.7171 103.886 72.86 102.984 72.86C102.369 72.86 101.804 72.7712 101.291 72.5936C100.785 72.4159 100.349 72.1418 99.9833 71.7711C99.6175 71.4004 99.3334 70.9177 99.131 70.323C98.9365 69.7284 98.8392 69.014 98.8392 68.18V60.0941H100.999V68.2031C100.999 68.7669 101.061 69.2341 101.186 69.6048C101.318 69.9678 101.493 70.2574 101.711 70.4736C101.937 70.6822 102.186 70.8289 102.458 70.9138C102.738 70.9988 103.026 71.0413 103.322 71.0413C104.241 71.0413 104.968 70.8675 105.505 70.52C106.042 70.1647 106.427 69.6898 106.661 69.0951C106.902 68.4927 107.023 67.8247 107.023 67.091Z" fill="#404040"/>
<path d="M117.366 60.0941V61.7391H110.537V60.0941H117.366ZM112.848 57.0475H115.008V69.5237C115.008 69.9485 115.074 70.269 115.207 70.4852C115.339 70.7015 115.51 70.8443 115.72 70.9138C115.93 70.9833 116.156 71.0181 116.397 71.0181C116.576 71.0181 116.763 71.0027 116.958 70.9718C117.16 70.9331 117.312 70.9023 117.413 70.8791L117.425 72.6283C117.253 72.6824 117.028 72.7326 116.748 72.7789C116.475 72.833 116.144 72.86 115.755 72.86C115.226 72.86 114.74 72.7557 114.296 72.5472C113.852 72.3387 113.498 71.9912 113.234 71.5046C112.977 71.0104 112.848 70.3462 112.848 69.5121V57.0475Z" fill="#404040"/>
<path d="M122.246 60.0941V72.6283H120.075V60.0941H122.246ZM119.911 56.7695C119.911 56.4219 120.016 56.1285 120.227 55.8891C120.444 55.6497 120.764 55.53 121.184 55.53C121.596 55.53 121.912 55.6497 122.129 55.8891C122.355 56.1285 122.468 56.4219 122.468 56.7695C122.468 57.1016 122.355 57.3873 122.129 57.6267C121.912 57.8584 121.596 57.9742 121.184 57.9742C120.764 57.9742 120.444 57.8584 120.227 57.6267C120.016 57.3873 119.911 57.1016 119.911 56.7695Z" fill="#404040"/>
<path d="M125.141 66.5002V66.2338C125.141 65.3302 125.274 64.4923 125.538 63.72C125.803 62.94 126.184 62.2643 126.682 61.6928C127.181 61.1136 127.784 60.6656 128.492 60.349C129.2 60.0246 129.994 59.8625 130.874 59.8625C131.761 59.8625 132.559 60.0246 133.267 60.349C133.983 60.6656 134.59 61.1136 135.088 61.6928C135.594 62.2643 135.979 62.94 136.244 63.72C136.508 64.4923 136.641 65.3302 136.641 66.2338V66.5002C136.641 67.4038 136.508 68.2417 136.244 69.014C135.979 69.7863 135.594 70.4621 135.088 71.0413C134.59 71.6128 133.987 72.0607 133.278 72.385C132.578 72.7017 131.784 72.86 130.897 72.86C130.01 72.86 129.212 72.7017 128.504 72.385C127.795 72.0607 127.188 71.6128 126.682 71.0413C126.184 70.4621 125.803 69.7863 125.538 69.014C125.274 68.2417 125.141 67.4038 125.141 66.5002ZM127.301 66.2338V66.5002C127.301 67.1258 127.375 67.7166 127.523 68.2726C127.671 68.821 127.893 69.3075 128.188 69.7322C128.492 70.157 128.869 70.4929 129.321 70.7401C129.772 70.9795 130.298 71.0992 130.897 71.0992C131.488 71.0992 132.006 70.9795 132.45 70.7401C132.901 70.4929 133.275 70.157 133.57 69.7322C133.866 69.3075 134.088 68.821 134.236 68.2726C134.391 67.7166 134.469 67.1258 134.469 66.5002V66.2338C134.469 65.616 134.391 65.0329 134.236 64.4846C134.088 63.9285 133.862 63.4381 133.559 63.0134C133.263 62.5809 132.889 62.2411 132.438 61.994C131.994 61.7468 131.473 61.6233 130.874 61.6233C130.282 61.6233 129.761 61.7468 129.309 61.994C128.866 62.2411 128.492 62.5809 128.188 63.0134C127.893 63.4381 127.671 63.9285 127.523 64.4846C127.375 65.0329 127.301 65.616 127.301 66.2338Z" fill="#404040"/>
<path d="M141.509 62.7701V72.6283H139.349V60.0941H141.392L141.509 62.7701ZM140.995 65.8863L140.096 65.8515C140.104 64.9943 140.232 64.2027 140.481 63.4768C140.731 62.7431 141.081 62.1059 141.532 61.5653C141.984 61.0248 142.521 60.6077 143.143 60.3143C143.774 60.0131 144.47 59.8625 145.233 59.8625C145.856 59.8625 146.416 59.9474 146.914 60.1173C147.412 60.2795 147.836 60.5421 148.187 60.905C148.545 61.268 148.817 61.7391 149.004 62.3183C149.191 62.8898 149.284 63.5887 149.284 64.4151V72.6283H147.112V64.3919C147.112 63.7355 147.015 63.2103 146.821 62.8164C146.626 62.4149 146.342 62.1253 145.968 61.9476C145.595 61.7623 145.136 61.6696 144.591 61.6696C144.054 61.6696 143.563 61.7816 143.12 62.0056C142.684 62.2295 142.307 62.5384 141.987 62.9323C141.676 63.3262 141.431 63.7779 141.252 64.2876C141.081 64.7896 140.995 65.3225 140.995 65.8863Z" fill="#404040"/>
<path d="M0 50.7847H51.3646V72.6283H0V50.7847Z" fill="#20C4F4"/>
</svg>
