<svg width="216" height="176" viewBox="0 0 216 176" fill="none" xmlns="http://www.w3.org/2000/svg">
<path opacity="0.7" d="M196.569 43.1256C188.575 31.9243 178.108 22.2606 166.097 15.9031C152.009 8.45207 131.742 4.93868 117.521 14.2241C102.796 23.8137 95.312 40.178 86.0524 54.2705C82.7916 59.2143 79.1038 64.0415 74.1845 67.5349C51.671 83.5014 31.4999 73.8065 13.1113 94.6055C-5.27731 115.405 0.22265 146.938 19.4629 163.147C38.7032 179.356 72.8142 168.358 99.1323 162.107C125.45 155.855 125.67 175.615 171.828 165.132C219.029 154.417 221.93 100.529 207.887 64.0498C205.006 56.6242 201.203 49.5933 196.569 43.1256Z" fill="url(#paint0_linear_31_7605)"/>
<path d="M102.929 17.9106C99.9199 16.2811 98.5501 17.6382 97.4554 16.2811C96.3606 14.9241 100.465 11.3978 92.2669 7.87157C92.2669 7.87157 91.7221 0.279319 80.4942 0.00688248C69.2663 -0.265554 72.2705 7.62998 69.256 9.50619C66.2415 11.3824 65.4217 8.42159 62.4124 10.3184C59.403 12.2151 60.7676 16.0138 58.3031 16.5587C55.8386 17.1036 52.5543 14.1171 49.5398 16.0138C46.5252 17.9106 46.5304 19.5452 45.1607 19.5452C43.7909 19.5452 41.0514 18.4555 39.4118 19.5452C37.7723 20.635 35.8525 21.9869 35.8525 21.9869H105.129C105.129 21.9869 105.949 19.5452 102.929 17.9106Z" fill="#1FC3F3"/>
<path opacity="0.5" d="M102.929 17.9106C99.9199 16.2811 98.5501 17.6382 97.4554 16.2811C96.3606 14.9241 100.465 11.3978 92.2669 7.87157C92.2669 7.87157 91.7221 0.279319 80.4942 0.00688248C69.2663 -0.265554 72.2705 7.62998 69.256 9.50619C66.2415 11.3824 65.4217 8.42159 62.4124 10.3184C59.403 12.2151 60.7676 16.0138 58.3031 16.5587C55.8386 17.1036 52.5543 14.1171 49.5398 16.0138C46.5252 17.9106 46.5304 19.5452 45.1607 19.5452C43.7909 19.5452 41.0514 18.4555 39.4118 19.5452C37.7723 20.635 35.8525 21.9869 35.8525 21.9869H105.129C105.129 21.9869 105.949 19.5452 102.929 17.9106Z" fill="white"/>
<path d="M159.8 29.3784C157.864 28.3504 156.982 29.2037 156.282 28.3504C155.581 27.4971 158.217 25.2096 152.941 22.9479C152.941 22.9479 152.588 18.0646 145.376 17.8898C138.164 17.7151 140.099 22.7731 138.164 23.9914C136.228 25.2096 135.699 23.2923 133.764 24.5054C131.829 25.7185 132.726 28.1653 131.123 28.5149C129.52 28.8644 127.429 26.9419 125.499 28.1653C123.569 29.3887 123.563 30.4271 122.681 30.4271C121.799 30.4271 120.04 29.7331 118.987 30.4271C117.934 31.121 116.699 32 116.699 32H161.206C161.206 32 161.735 30.4219 159.8 29.3784Z" fill="white"/>
<path d="M187.399 82.8924H30.2545V132.71H187.399V82.8924Z" fill="white"/>
<path d="M187.399 133H30.2546C30.1781 133 30.1047 132.969 30.0507 132.915C29.9966 132.861 29.9662 132.787 29.9662 132.71V82.8807C29.9662 82.8039 29.9966 82.7302 30.0507 82.6759C30.1047 82.6216 30.1781 82.591 30.2546 82.591H187.399C187.476 82.591 187.549 82.6216 187.603 82.6759C187.657 82.7302 187.688 82.8039 187.688 82.8807V132.71C187.688 132.787 187.657 132.861 187.603 132.915C187.549 132.969 187.476 133 187.399 133ZM30.5256 132.42H187.111V83.1704H30.5429L30.5256 132.42Z" fill="#113C64"/>
<path d="M109.037 37.4376L30.6693 82.8924H187.399L109.037 37.4376Z" fill="#1FC3F3"/>
<path d="M187.4 83.1821H30.6704C30.6075 83.1815 30.5465 83.1602 30.4968 83.1214C30.447 83.0827 30.4112 83.0287 30.3949 82.9676C30.3786 82.9066 30.3826 82.8418 30.4063 82.7833C30.43 82.7247 30.4721 82.6755 30.5263 82.6433L108.894 37.1885C108.938 37.1631 108.987 37.1497 109.038 37.1497C109.089 37.1497 109.138 37.1631 109.182 37.1885L187.544 82.6491C187.6 82.6795 187.644 82.7281 187.67 82.7871C187.695 82.846 187.699 82.9117 187.682 82.9735C187.665 83.0347 187.627 83.0882 187.576 83.1259C187.525 83.1637 187.463 83.1834 187.4 83.1821ZM31.7489 82.6027H186.316L109.032 37.7737L31.7489 82.6027Z" fill="#113C64"/>
<path d="M140.672 78.8425H101.782V132.71H140.672V78.8425Z" fill="white"/>
<path d="M140.673 133H101.783C101.707 133 101.633 132.969 101.579 132.915C101.525 132.861 101.495 132.787 101.495 132.71V78.825C101.495 78.7481 101.525 78.6745 101.579 78.6201C101.633 78.5658 101.707 78.5353 101.783 78.5353H140.673C140.749 78.5368 140.821 78.5678 140.875 78.6218C140.929 78.6758 140.96 78.7486 140.961 78.825V132.71C140.961 132.787 140.931 132.861 140.877 132.915C140.822 132.969 140.749 133 140.673 133ZM102.071 132.42H140.361V79.1147H102.071V132.42Z" fill="#113C64"/>
<path d="M140.672 78.8425H101.782V81.1312H140.672V78.8425Z" fill="#113C64"/>
<path d="M140.673 81.4267H101.783C101.707 81.4267 101.633 81.3962 101.579 81.3419C101.525 81.2875 101.495 81.2138 101.495 81.137V78.8194C101.495 78.7425 101.525 78.6689 101.579 78.6145C101.633 78.5602 101.707 78.5297 101.783 78.5297H140.673C140.749 78.5311 140.821 78.5621 140.875 78.6162C140.929 78.6702 140.96 78.743 140.961 78.8194V81.137C140.96 81.2134 140.929 81.2862 140.875 81.3402C140.821 81.3942 140.749 81.4252 140.673 81.4267ZM102.071 80.8473H140.361V79.1091H102.071V80.8473Z" fill="#113C64"/>
<path d="M130.936 132.71H111.523V99.0405C111.522 97.7594 111.772 96.4907 112.26 95.307C112.747 94.1232 113.462 93.0475 114.364 92.1414C115.265 91.2353 116.335 90.5165 117.513 90.0261C118.691 89.5356 119.954 89.2832 121.229 89.2832C123.805 89.2832 126.275 90.3112 128.097 92.141C129.918 93.9709 130.941 96.4527 130.941 99.0405L130.936 132.71Z" fill="#113C64"/>
<path d="M130.935 133H111.522C111.446 133 111.373 132.969 111.318 132.915C111.264 132.861 111.234 132.787 111.234 132.71V99.0407C111.202 97.7014 111.437 96.3692 111.925 95.1225C112.413 93.8757 113.144 92.7396 114.076 91.781C115.007 90.8224 116.12 90.0606 117.349 89.5405C118.578 89.0204 119.898 88.7525 121.232 88.7525C122.565 88.7525 123.885 89.0204 125.114 89.5405C126.343 90.0606 127.456 90.8224 128.388 91.781C129.319 92.7396 130.051 93.8757 130.539 95.1225C131.027 96.3692 131.262 97.7014 131.23 99.0407V132.71C131.23 132.749 131.222 132.787 131.207 132.823C131.192 132.858 131.17 132.89 131.143 132.917C131.116 132.944 131.083 132.965 131.048 132.98C131.012 132.994 130.974 133.001 130.935 133ZM111.805 132.421H130.647V99.0407C130.678 97.7781 130.457 96.522 129.998 95.3464C129.539 94.1707 128.85 93.0993 127.972 92.1953C127.094 91.2912 126.045 90.5728 124.886 90.0822C123.728 89.5917 122.483 89.339 121.226 89.339C119.969 89.339 118.724 89.5917 117.566 90.0822C116.407 90.5728 115.358 91.2912 114.48 92.1953C113.602 93.0993 112.913 94.1707 112.454 95.3464C111.995 96.522 111.774 97.7781 111.805 99.0407V132.421Z" fill="#113C64"/>
<path d="M109.049 91.6185H18.9731V132.71H109.049V91.6185Z" fill="white"/>
<path d="M109.049 133H18.9731C18.8966 133 18.8232 132.969 18.7692 132.915C18.7151 132.861 18.6847 132.787 18.6847 132.71V91.6182C18.6847 91.5414 18.7151 91.4677 18.7692 91.4134C18.8232 91.359 18.8966 91.3285 18.9731 91.3285H109.049C109.125 91.3285 109.198 91.359 109.252 91.4134C109.307 91.4677 109.337 91.5414 109.337 91.6182V132.71C109.337 132.787 109.307 132.861 109.252 132.915C109.198 132.969 109.125 133 109.049 133ZM19.2441 132.42H108.76V91.9195H19.2441V132.42Z" fill="#113C64"/>
<path d="M109.049 91.6185H18.9731V93.4494H109.049V91.6185Z" fill="#113C64"/>
<path d="M109.049 93.7389H18.9731C18.8966 93.7389 18.8232 93.7084 18.7692 93.654C18.7151 93.5997 18.6847 93.526 18.6847 93.4492V91.6182C18.6847 91.5414 18.7151 91.4677 18.7692 91.4134C18.8232 91.359 18.8966 91.3285 18.9731 91.3285H109.049C109.125 91.3285 109.198 91.359 109.252 91.4134C109.307 91.4677 109.337 91.5414 109.337 91.6182V93.4492C109.337 93.526 109.307 93.5997 109.252 93.654C109.198 93.7084 109.125 93.7389 109.049 93.7389ZM19.2441 93.1595H108.76V91.9195H19.2441V93.1595Z" fill="#113C64"/>
<path d="M99.1357 95.008H28.8828V132.71H99.1357V95.008Z" fill="#1FC3F3"/>
<path d="M99.1357 133H28.8829C28.8064 133 28.733 132.969 28.6789 132.915C28.6249 132.861 28.5945 132.787 28.5945 132.71V95.008C28.5945 94.9312 28.6249 94.8575 28.6789 94.8031C28.733 94.7488 28.8064 94.7183 28.8829 94.7183H99.1357C99.2122 94.7183 99.2855 94.7488 99.3396 94.8031C99.3937 94.8575 99.4241 94.9312 99.4241 95.008V132.71C99.4241 132.787 99.3937 132.861 99.3396 132.915C99.2855 132.969 99.2122 133 99.1357 133ZM29.1712 132.421H98.8358V95.2977H29.1712V132.421Z" fill="#113C64"/>
<path d="M64.0114 61.5528L16.2053 89.2834H111.817L64.0114 61.5528Z" fill="#1FC3F3"/>
<path d="M111.818 89.6017H16.2054C16.1424 89.601 16.0814 89.5797 16.0317 89.541C15.9819 89.5023 15.9461 89.4482 15.9298 89.3872C15.9135 89.3261 15.9175 89.2614 15.9412 89.2028C15.9649 89.1442 16.007 89.0951 16.0612 89.0628L63.8673 61.3322C63.9111 61.3068 63.9608 61.2934 64.0114 61.2934C64.0621 61.2934 64.1118 61.3068 64.1556 61.3322L111.962 89.0223C112.016 89.0545 112.058 89.1037 112.082 89.1622C112.105 89.2208 112.109 89.2856 112.093 89.3466C112.077 89.4077 112.041 89.4617 111.991 89.5004C111.941 89.5392 111.88 89.5605 111.818 89.5611V89.6017ZM17.2839 89.0223H110.716L63.9999 61.9174L17.2839 89.0223Z" fill="#113C64"/>
<path d="M111.812 89.2832H16.2053V91.6182H111.812V89.2832Z" fill="white"/>
<path d="M111.817 91.9196H16.2052C16.1288 91.9196 16.0554 91.8891 16.0013 91.8347C15.9473 91.7804 15.9169 91.7067 15.9169 91.6299V89.3123C15.9169 89.2354 15.9473 89.1617 16.0013 89.1074C16.0554 89.0531 16.1288 89.0226 16.2052 89.0226H111.817C111.894 89.0226 111.967 89.0531 112.021 89.1074C112.075 89.1617 112.106 89.2354 112.106 89.3123V91.6299C112.106 91.7067 112.075 91.7804 112.021 91.8347C111.967 91.8891 111.894 91.9196 111.817 91.9196ZM16.4936 91.3402H111.523V89.602H16.4936V91.3402Z" fill="#113C64"/>
<path d="M121.224 63.2096L96.4705 77.5674H145.984L121.224 63.2096Z" fill="#1FC3F3"/>
<path d="M145.984 77.8573H96.4705C96.4064 77.8583 96.3438 77.8377 96.2926 77.7989C96.2414 77.76 96.2046 77.7052 96.1879 77.643C96.1711 77.5811 96.1757 77.5154 96.2008 77.4565C96.226 77.3976 96.2702 77.3489 96.3263 77.3185L121.08 62.9491C121.125 62.9262 121.174 62.9143 121.224 62.9143C121.274 62.9143 121.324 62.9262 121.368 62.9491L146.128 77.3185C146.182 77.3508 146.224 77.3999 146.248 77.4585C146.272 77.517 146.276 77.5818 146.259 77.6429C146.243 77.7039 146.207 77.7579 146.157 77.7967C146.108 77.8354 146.047 77.8567 145.984 77.8573ZM97.5375 77.2779H144.899L121.224 63.5285L97.5375 77.2779Z" fill="#113C64"/>
<path d="M145.984 77.5674H96.4705V79.8734H145.984V77.5674Z" fill="white"/>
<path d="M145.984 80.1638H96.4705C96.394 80.1638 96.3207 80.1333 96.2666 80.079C96.2125 80.0246 96.1821 79.9509 96.1821 79.8741V77.5565C96.1821 77.4796 96.2125 77.4059 96.2666 77.3516C96.3207 77.2973 96.394 77.2668 96.4705 77.2668H145.984C146.06 77.2668 146.134 77.2973 146.188 77.3516C146.242 77.4059 146.272 77.4796 146.272 77.5565V79.8741C146.272 79.9509 146.242 80.0246 146.188 80.079C146.134 80.1333 146.06 80.1638 145.984 80.1638ZM96.7589 79.5844H145.695V77.8462H96.7589V79.5844Z" fill="#113C64"/>
<path d="M37.1295 98.0383H31.4429V103.751H37.1295V98.0383Z" fill="white"/>
<path d="M37.1234 104.041H31.4367C31.3602 104.041 31.2869 104.01 31.2328 103.956C31.1787 103.902 31.1483 103.828 31.1483 103.751V98.0383C31.1483 97.9615 31.1787 97.8878 31.2328 97.8335C31.2869 97.7791 31.3602 97.7486 31.4367 97.7486H37.1234C37.1998 97.7486 37.2732 97.7791 37.3273 97.8335C37.3813 97.8878 37.4117 97.9615 37.4117 98.0383V103.751C37.4117 103.828 37.3813 103.902 37.3273 103.956C37.2732 104.01 37.1998 104.041 37.1234 104.041ZM31.7251 103.462H36.835V98.328H31.7251V103.462Z" fill="#113C64"/>
<path d="M45.6654 98.0383H39.9788V103.751H45.6654V98.0383Z" fill="white"/>
<path d="M45.6651 104.041H40.0072C39.9308 104.041 39.8574 104.01 39.8033 103.956C39.7493 103.902 39.7189 103.828 39.7189 103.751V98.0383C39.7189 97.9615 39.7493 97.8878 39.8033 97.8335C39.8574 97.7791 39.9308 97.7486 40.0072 97.7486H45.6939C45.7704 97.7486 45.8437 97.7791 45.8978 97.8335C45.9519 97.8878 45.9823 97.9615 45.9823 98.0383V103.751C45.9825 103.792 45.9742 103.832 45.9579 103.869C45.9417 103.906 45.9178 103.94 45.8879 103.967C45.858 103.994 45.8227 104.015 45.7843 104.028C45.7459 104.041 45.7053 104.045 45.6651 104.041ZM40.2668 103.462H45.3767V98.328H40.2668V103.462Z" fill="#113C64"/>
<path d="M54.1953 98.0383H48.5087V103.751H54.1953V98.0383Z" fill="white"/>
<path d="M54.201 104.041H48.5086C48.4321 104.041 48.3588 104.01 48.3047 103.956C48.2506 103.902 48.2202 103.828 48.2202 103.751V98.0383C48.2202 97.9615 48.2506 97.8878 48.3047 97.8335C48.3588 97.7791 48.4321 97.7486 48.5086 97.7486H54.201C54.2775 97.7486 54.3508 97.7791 54.4049 97.8335C54.459 97.8878 54.4894 97.9615 54.4894 98.0383V103.751C54.4894 103.828 54.459 103.902 54.4049 103.956C54.3508 104.01 54.2775 104.041 54.201 104.041ZM48.797 103.462H53.9126V98.328H48.797V103.462Z" fill="#113C64"/>
<path d="M62.7303 98.0383H57.0436V103.751H62.7303V98.0383Z" fill="white"/>
<path d="M62.7361 104.041H57.0436C56.9671 104.041 56.8938 104.01 56.8397 103.956C56.7856 103.902 56.7552 103.828 56.7552 103.751V98.0383C56.7552 97.9615 56.7856 97.8878 56.8397 97.8335C56.8938 97.7791 56.9671 97.7486 57.0436 97.7486H62.7361C62.8125 97.7486 62.8859 97.7791 62.94 97.8335C62.9941 97.8878 63.0244 97.9615 63.0244 98.0383V103.751C63.0244 103.828 62.9941 103.902 62.94 103.956C62.8859 104.01 62.8125 104.041 62.7361 104.041ZM57.332 103.462H62.4477V98.328H57.3089L57.332 103.462Z" fill="#113C64"/>
<path d="M71.2672 98.0383H65.5806V103.751H71.2672V98.0383Z" fill="white"/>
<path d="M71.2673 104.041H65.5806C65.5041 104.041 65.4308 104.01 65.3767 103.956C65.3226 103.902 65.2922 103.828 65.2922 103.751V98.0383C65.2922 97.9615 65.3226 97.8878 65.3767 97.8335C65.4308 97.7791 65.5041 97.7486 65.5806 97.7486H71.2673C71.3438 97.7486 71.4171 97.7791 71.4712 97.8335C71.5253 97.8878 71.5556 97.9615 71.5556 98.0383V103.751C71.5556 103.828 71.5253 103.902 71.4712 103.956C71.4171 104.01 71.3438 104.041 71.2673 104.041ZM65.869 103.462H70.9789V98.328H65.869V103.462Z" fill="#113C64"/>
<path d="M79.7971 98.0383H74.1105V103.751H79.7971V98.0383Z" fill="white"/>
<path d="M79.8018 104.041H74.1094C74.0329 104.041 73.9596 104.01 73.9055 103.956C73.8514 103.902 73.821 103.828 73.821 103.751V98.0383C73.821 97.9615 73.8514 97.8878 73.9055 97.8335C73.9596 97.7791 74.0329 97.7486 74.1094 97.7486H79.8018C79.8783 97.7486 79.9517 97.7791 80.0057 97.8335C80.0598 97.8878 80.0902 97.9615 80.0902 98.0383V103.751C80.0902 103.828 80.0598 103.902 80.0057 103.956C79.9517 104.01 79.8783 104.041 79.8018 104.041ZM74.3978 103.462H79.5135V98.328H74.3978V103.462Z" fill="#113C64"/>
<path d="M88.333 98.0383H82.6464V103.751H88.333V98.0383Z" fill="white"/>
<path d="M88.3388 104.041H82.6464C82.5699 104.041 82.4966 104.01 82.4425 103.956C82.3884 103.902 82.358 103.828 82.358 103.751V98.0383C82.358 97.9615 82.3884 97.8878 82.4425 97.8335C82.4966 97.7791 82.5699 97.7486 82.6464 97.7486H88.3388C88.4153 97.7486 88.4887 97.7791 88.5427 97.8335C88.5968 97.8878 88.6272 97.9615 88.6272 98.0383V103.751C88.6272 103.828 88.5968 103.902 88.5427 103.956C88.4887 104.01 88.4153 104.041 88.3388 104.041ZM82.9348 103.462H88.0505V98.328H82.9348V103.462Z" fill="#113C64"/>
<path d="M96.8681 98.0383H91.1814V103.751H96.8681V98.0383Z" fill="white"/>
<path d="M96.868 104.041H91.1813C91.1048 104.041 91.0315 104.01 90.9774 103.956C90.9233 103.902 90.8929 103.828 90.8929 103.751V98.0383C90.8929 97.9615 90.9233 97.8878 90.9774 97.8335C91.0315 97.7791 91.1048 97.7486 91.1813 97.7486H96.868C96.9445 97.7486 97.0178 97.7791 97.0719 97.8335C97.126 97.8878 97.1564 97.9615 97.1564 98.0383V103.751C97.1564 103.789 97.1489 103.827 97.1344 103.862C97.1199 103.897 97.0987 103.929 97.0719 103.956C97.0451 103.983 97.0133 104.004 96.9783 104.019C96.9434 104.033 96.9059 104.041 96.868 104.041ZM91.4697 103.462H96.5796V98.328H91.4697V103.462Z" fill="#113C64"/>
<path d="M37.1295 106.451H31.4429V112.164H37.1295V106.451Z" fill="white"/>
<path d="M37.1234 112.454H31.4367C31.3602 112.454 31.2869 112.423 31.2328 112.369C31.1787 112.315 31.1483 112.241 31.1483 112.164V106.451C31.1483 106.374 31.1787 106.301 31.2328 106.246C31.2869 106.192 31.3602 106.161 31.4367 106.161H37.1234C37.1998 106.161 37.2732 106.192 37.3273 106.246C37.3813 106.301 37.4117 106.374 37.4117 106.451V112.164C37.4117 112.241 37.3813 112.315 37.3273 112.369C37.2732 112.423 37.1998 112.454 37.1234 112.454ZM31.7251 111.874H36.835V106.741H31.7251V111.874Z" fill="#113C64"/>
<path d="M45.6654 106.451H39.9788V112.164H45.6654V106.451Z" fill="white"/>
<path d="M45.6651 112.454H40.0072C39.9308 112.454 39.8574 112.423 39.8033 112.369C39.7493 112.315 39.7189 112.241 39.7189 112.164V106.451C39.7189 106.374 39.7493 106.301 39.8033 106.246C39.8574 106.192 39.9308 106.161 40.0072 106.161H45.6939C45.7704 106.161 45.8437 106.192 45.8978 106.246C45.9519 106.301 45.9823 106.374 45.9823 106.451V112.164C45.9825 112.205 45.9742 112.245 45.9579 112.282C45.9417 112.319 45.9178 112.353 45.8879 112.38C45.858 112.407 45.8227 112.428 45.7843 112.441C45.7459 112.453 45.7053 112.458 45.6651 112.454ZM40.2668 111.874H45.3767V106.741H40.2668V111.874Z" fill="#113C64"/>
<path d="M54.1953 106.451H48.5087V112.164H54.1953V106.451Z" fill="white"/>
<path d="M54.201 112.454H48.5086C48.4321 112.454 48.3588 112.423 48.3047 112.369C48.2506 112.315 48.2202 112.241 48.2202 112.164V106.451C48.2202 106.374 48.2506 106.301 48.3047 106.246C48.3588 106.192 48.4321 106.161 48.5086 106.161H54.201C54.2775 106.161 54.3508 106.192 54.4049 106.246C54.459 106.301 54.4894 106.374 54.4894 106.451V112.164C54.4894 112.241 54.459 112.315 54.4049 112.369C54.3508 112.423 54.2775 112.454 54.201 112.454ZM48.797 111.874H53.9126V106.741H48.797V111.874Z" fill="#113C64"/>
<path d="M62.7303 106.451H57.0436V112.164H62.7303V106.451Z" fill="white"/>
<path d="M62.7361 112.454H57.0436C56.9671 112.454 56.8938 112.423 56.8397 112.369C56.7856 112.315 56.7552 112.241 56.7552 112.164V106.451C56.7552 106.374 56.7856 106.301 56.8397 106.246C56.8938 106.192 56.9671 106.161 57.0436 106.161H62.7361C62.8125 106.161 62.8859 106.192 62.94 106.246C62.9941 106.301 63.0244 106.374 63.0244 106.451V112.164C63.0244 112.241 62.9941 112.315 62.94 112.369C62.8859 112.423 62.8125 112.454 62.7361 112.454ZM57.332 111.874H62.4477V106.741H57.3089L57.332 111.874Z" fill="#113C64"/>
<path d="M71.2672 106.451H65.5806V112.164H71.2672V106.451Z" fill="white"/>
<path d="M71.2673 112.454H65.5806C65.5041 112.454 65.4308 112.423 65.3767 112.369C65.3226 112.315 65.2922 112.241 65.2922 112.164V106.451C65.2922 106.374 65.3226 106.301 65.3767 106.246C65.4308 106.192 65.5041 106.161 65.5806 106.161H71.2673C71.3438 106.161 71.4171 106.192 71.4712 106.246C71.5253 106.301 71.5556 106.374 71.5556 106.451V112.164C71.5556 112.241 71.5253 112.315 71.4712 112.369C71.4171 112.423 71.3438 112.454 71.2673 112.454ZM65.869 111.874H70.9789V106.741H65.869V111.874Z" fill="#113C64"/>
<path d="M79.7971 106.451H74.1105V112.164H79.7971V106.451Z" fill="white"/>
<path d="M79.8018 112.454H74.1094C74.0329 112.454 73.9596 112.423 73.9055 112.369C73.8514 112.315 73.821 112.241 73.821 112.164V106.451C73.821 106.374 73.8514 106.301 73.9055 106.246C73.9596 106.192 74.0329 106.161 74.1094 106.161H79.8018C79.8783 106.161 79.9517 106.192 80.0057 106.246C80.0598 106.301 80.0902 106.374 80.0902 106.451V112.164C80.0902 112.241 80.0598 112.315 80.0057 112.369C79.9517 112.423 79.8783 112.454 79.8018 112.454ZM74.3978 111.874H79.5135V106.741H74.3978V111.874Z" fill="#113C64"/>
<path d="M88.333 106.451H82.6464V112.164H88.333V106.451Z" fill="white"/>
<path d="M88.3388 112.454H82.6464C82.5699 112.454 82.4966 112.423 82.4425 112.369C82.3884 112.315 82.358 112.241 82.358 112.164V106.451C82.358 106.374 82.3884 106.301 82.4425 106.246C82.4966 106.192 82.5699 106.161 82.6464 106.161H88.3388C88.4153 106.161 88.4887 106.192 88.5427 106.246C88.5968 106.301 88.6272 106.374 88.6272 106.451V112.164C88.6272 112.241 88.5968 112.315 88.5427 112.369C88.4887 112.423 88.4153 112.454 88.3388 112.454ZM82.9348 111.874H88.0505V106.741H82.9348V111.874Z" fill="#113C64"/>
<path d="M96.8681 106.451H91.1814V112.164H96.8681V106.451Z" fill="white"/>
<path d="M96.868 112.454H91.1813C91.1048 112.454 91.0315 112.423 90.9774 112.369C90.9233 112.315 90.8929 112.241 90.8929 112.164V106.451C90.8929 106.374 90.9233 106.301 90.9774 106.246C91.0315 106.192 91.1048 106.161 91.1813 106.161H96.868C96.9445 106.161 97.0178 106.192 97.0719 106.246C97.126 106.301 97.1564 106.374 97.1564 106.451V112.164C97.1564 112.202 97.1489 112.24 97.1344 112.275C97.1199 112.31 97.0987 112.342 97.0719 112.369C97.0451 112.396 97.0133 112.417 96.9783 112.432C96.9434 112.446 96.9059 112.454 96.868 112.454ZM91.4697 111.874H96.5796V106.741H91.4697V111.874Z" fill="#113C64"/>
<path d="M37.1295 114.858H31.4429V120.571H37.1295V114.858Z" fill="white"/>
<path d="M37.1234 120.89H31.4367C31.3602 120.89 31.2869 120.86 31.2328 120.806C31.1787 120.751 31.1483 120.678 31.1483 120.601V114.882C31.1483 114.805 31.1787 114.731 31.2328 114.677C31.2869 114.623 31.3602 114.592 31.4367 114.592H37.1234C37.1998 114.592 37.2732 114.623 37.3273 114.677C37.3813 114.731 37.4117 114.805 37.4117 114.882V120.601C37.4117 120.678 37.3813 120.751 37.3273 120.806C37.2732 120.86 37.1998 120.89 37.1234 120.89ZM31.7251 120.311H36.835V115.172H31.7251V120.311Z" fill="#113C64"/>
<path d="M45.6654 114.858H39.9788V120.571H45.6654V114.858Z" fill="white"/>
<path d="M45.6651 120.89H40.0072C39.9308 120.89 39.8574 120.86 39.8033 120.806C39.7493 120.751 39.7189 120.678 39.7189 120.601V114.882C39.7189 114.805 39.7493 114.731 39.8033 114.677C39.8574 114.623 39.9308 114.592 40.0072 114.592H45.6939C45.7704 114.592 45.8437 114.623 45.8978 114.677C45.9519 114.731 45.9823 114.805 45.9823 114.882V120.601C45.9825 120.641 45.9742 120.682 45.9579 120.719C45.9417 120.756 45.9178 120.789 45.8879 120.817C45.858 120.844 45.8227 120.865 45.7843 120.877C45.7459 120.89 45.7053 120.895 45.6651 120.89ZM40.2668 120.311H45.3767V115.172H40.2668V120.311Z" fill="#113C64"/>
<path d="M54.1953 114.858H48.5087V120.571H54.1953V114.858Z" fill="white"/>
<path d="M54.201 120.89H48.5086C48.4326 120.889 48.3601 120.858 48.3063 120.804C48.2525 120.75 48.2217 120.677 48.2202 120.601V114.882C48.2202 114.805 48.2506 114.731 48.3047 114.677C48.3588 114.623 48.4321 114.592 48.5086 114.592H54.201C54.2775 114.592 54.3508 114.623 54.4049 114.677C54.459 114.731 54.4894 114.805 54.4894 114.882V120.601C54.4894 120.678 54.459 120.751 54.4049 120.806C54.3508 120.86 54.2775 120.89 54.201 120.89ZM48.797 120.311H53.9126V115.172H48.797V120.311Z" fill="#113C64"/>
<path d="M62.7303 114.858H57.0436V120.571H62.7303V114.858Z" fill="white"/>
<path d="M62.7361 120.89H57.0436C56.9671 120.89 56.8938 120.86 56.8397 120.806C56.7856 120.751 56.7552 120.678 56.7552 120.601V114.882C56.7552 114.805 56.7856 114.731 56.8397 114.677C56.8938 114.623 56.9671 114.592 57.0436 114.592H62.7361C62.8125 114.592 62.8859 114.623 62.94 114.677C62.9941 114.731 63.0244 114.805 63.0244 114.882V120.601C63.023 120.677 62.9921 120.75 62.9383 120.804C62.8846 120.858 62.8121 120.889 62.7361 120.89ZM57.3089 120.311H62.4246V115.172H57.3089V120.311Z" fill="#113C64"/>
<path d="M71.2672 114.858H65.5806V120.571H71.2672V114.858Z" fill="white"/>
<path d="M71.2673 120.89H65.5806C65.5041 120.89 65.4308 120.86 65.3767 120.806C65.3226 120.751 65.2922 120.678 65.2922 120.601V114.882C65.2922 114.805 65.3226 114.731 65.3767 114.677C65.4308 114.623 65.5041 114.592 65.5806 114.592H71.2673C71.3438 114.592 71.4171 114.623 71.4712 114.677C71.5253 114.731 71.5556 114.805 71.5556 114.882V120.601C71.5556 120.678 71.5253 120.751 71.4712 120.806C71.4171 120.86 71.3438 120.89 71.2673 120.89ZM65.869 120.311H70.9789V115.172H65.869V120.311Z" fill="#113C64"/>
<path d="M79.7971 114.858H74.1105V120.571H79.7971V114.858Z" fill="white"/>
<path d="M79.8018 120.89H74.1094C74.0334 120.889 73.9609 120.858 73.9071 120.804C73.8534 120.75 73.8225 120.677 73.821 120.601V114.882C73.821 114.805 73.8514 114.731 73.9055 114.677C73.9596 114.623 74.0329 114.592 74.1094 114.592H79.8018C79.8783 114.592 79.9517 114.623 80.0057 114.677C80.0598 114.731 80.0902 114.805 80.0902 114.882V120.601C80.0902 120.678 80.0598 120.751 80.0057 120.806C79.9517 120.86 79.8783 120.89 79.8018 120.89ZM74.3978 120.311H79.5135V115.172H74.3978V120.311Z" fill="#113C64"/>
<path d="M88.333 114.858H82.6464V120.571H88.333V114.858Z" fill="white"/>
<path d="M88.3388 120.89H82.6464C82.5704 120.889 82.4979 120.858 82.4441 120.804C82.3904 120.75 82.3595 120.677 82.358 120.601V114.882C82.358 114.805 82.3884 114.731 82.4425 114.677C82.4966 114.623 82.5699 114.592 82.6464 114.592H88.3388C88.4153 114.592 88.4887 114.623 88.5427 114.677C88.5968 114.731 88.6272 114.805 88.6272 114.882V120.601C88.6257 120.677 88.5949 120.75 88.5411 120.804C88.4874 120.858 88.4149 120.889 88.3388 120.89ZM82.9348 120.311H88.0505V115.172H82.9348V120.311Z" fill="#113C64"/>
<path d="M96.8681 114.858H91.1814V120.571H96.8681V114.858Z" fill="white"/>
<path d="M96.868 120.89H91.1813C91.1048 120.89 91.0315 120.86 90.9774 120.806C90.9233 120.751 90.8929 120.678 90.8929 120.601V114.882C90.8929 114.805 90.9233 114.731 90.9774 114.677C91.0315 114.623 91.1048 114.592 91.1813 114.592H96.868C96.9445 114.592 97.0178 114.623 97.0719 114.677C97.126 114.731 97.1564 114.805 97.1564 114.882V120.601C97.1564 120.639 97.1489 120.676 97.1344 120.712C97.1199 120.747 97.0987 120.779 97.0719 120.806C97.0451 120.832 97.0133 120.854 96.9783 120.868C96.9434 120.883 96.9059 120.89 96.868 120.89ZM91.4697 120.311H96.5796V115.172H91.4697V120.311Z" fill="#113C64"/>
<path d="M37.1295 123.272H31.4429V128.985H37.1295V123.272Z" fill="white"/>
<path d="M37.1234 129.274H31.4367C31.3602 129.274 31.2869 129.244 31.2328 129.189C31.1787 129.135 31.1483 129.061 31.1483 128.984V123.271C31.1483 123.195 31.1787 123.121 31.2328 123.067C31.2869 123.012 31.3602 122.982 31.4367 122.982H37.1234C37.1998 122.982 37.2732 123.012 37.3273 123.067C37.3813 123.121 37.4117 123.195 37.4117 123.271V129.002C37.4073 129.076 37.375 129.145 37.3214 129.196C37.2678 129.246 37.1969 129.274 37.1234 129.274ZM31.7251 128.695H36.835V123.561H31.7251V128.695Z" fill="#113C64"/>
<path d="M45.6654 123.272H39.9788V128.985H45.6654V123.272Z" fill="white"/>
<path d="M45.6651 129.274H40.0072C39.9308 129.274 39.8574 129.244 39.8033 129.189C39.7493 129.135 39.7189 129.061 39.7189 128.984V123.271C39.7189 123.195 39.7493 123.121 39.8033 123.067C39.8574 123.012 39.9308 122.982 40.0072 122.982H45.6939C45.7704 122.982 45.8437 123.012 45.8978 123.067C45.9519 123.121 45.9823 123.195 45.9823 123.271V129.002C45.9801 129.041 45.9701 129.079 45.9528 129.114C45.9355 129.149 45.9113 129.181 45.8817 129.206C45.852 129.232 45.8175 129.251 45.7803 129.262C45.7431 129.274 45.7039 129.278 45.6651 129.274ZM40.2668 128.695H45.3767V123.561H40.2668V128.695Z" fill="#113C64"/>
<path d="M54.1953 123.272H48.5087V128.985H54.1953V123.272Z" fill="white"/>
<path d="M54.201 129.274H48.5086C48.4321 129.274 48.3588 129.244 48.3047 129.189C48.2506 129.135 48.2202 129.061 48.2202 128.984V123.271C48.2202 123.195 48.2506 123.121 48.3047 123.067C48.3588 123.012 48.4321 122.982 48.5086 122.982H54.201C54.2775 122.982 54.3508 123.012 54.4049 123.067C54.459 123.121 54.4894 123.195 54.4894 123.271V129.002C54.485 129.076 54.4526 129.145 54.399 129.196C54.3454 129.246 54.2746 129.274 54.201 129.274ZM48.797 128.695H53.9126V123.561H48.797V128.695Z" fill="#113C64"/>
<path d="M62.7303 123.272H57.0436V128.985H62.7303V123.272Z" fill="white"/>
<path d="M62.7361 129.274H57.0436C56.9671 129.274 56.8938 129.244 56.8397 129.189C56.7856 129.135 56.7552 129.061 56.7552 128.984V123.271C56.7552 123.195 56.7856 123.121 56.8397 123.067C56.8938 123.012 56.9671 122.982 57.0436 122.982H62.7361C62.8125 122.982 62.8859 123.012 62.94 123.067C62.9941 123.121 63.0244 123.195 63.0244 123.271V129.002C63.02 129.076 62.9877 129.145 62.9341 129.196C62.8805 129.246 62.8096 129.274 62.7361 129.274ZM57.332 128.695H62.4477V123.561H57.3089L57.332 128.695Z" fill="#113C64"/>
<path d="M71.2672 123.272H65.5806V128.985H71.2672V123.272Z" fill="white"/>
<path d="M71.2673 129.274H65.5806C65.5041 129.274 65.4308 129.244 65.3767 129.189C65.3226 129.135 65.2922 129.061 65.2922 128.984V123.271C65.2922 123.195 65.3226 123.121 65.3767 123.067C65.4308 123.012 65.5041 122.982 65.5806 122.982H71.2673C71.3438 122.982 71.4171 123.012 71.4712 123.067C71.5253 123.121 71.5556 123.195 71.5556 123.271V129.002C71.5512 129.076 71.5189 129.145 71.4653 129.196C71.4117 129.246 71.3408 129.274 71.2673 129.274ZM65.869 128.695H70.9789V123.561H65.869V128.695Z" fill="#113C64"/>
<path d="M79.7971 123.272H74.1105V128.985H79.7971V123.272Z" fill="white"/>
<path d="M79.8018 129.274H74.1094C74.0329 129.274 73.9596 129.244 73.9055 129.189C73.8514 129.135 73.821 129.061 73.821 128.984V123.271C73.821 123.195 73.8514 123.121 73.9055 123.067C73.9596 123.012 74.0329 122.982 74.1094 122.982H79.8018C79.8783 122.982 79.9517 123.012 80.0057 123.067C80.0598 123.121 80.0902 123.195 80.0902 123.271V129.002C80.0858 129.076 80.0535 129.145 79.9999 129.196C79.9463 129.246 79.8754 129.274 79.8018 129.274ZM74.3978 128.695H79.5135V123.561H74.3978V128.695Z" fill="#113C64"/>
<path d="M88.333 123.272H82.6464V128.985H88.333V123.272Z" fill="white"/>
<path d="M88.3388 129.274H82.6464C82.5699 129.274 82.4966 129.244 82.4425 129.189C82.3884 129.135 82.358 129.061 82.358 128.984V123.271C82.358 123.195 82.3884 123.121 82.4425 123.067C82.4966 123.012 82.5699 122.982 82.6464 122.982H88.3388C88.4153 122.982 88.4887 123.012 88.5427 123.067C88.5968 123.121 88.6272 123.195 88.6272 123.271V129.002C88.6228 129.076 88.5905 129.145 88.5369 129.196C88.4833 129.246 88.4124 129.274 88.3388 129.274ZM82.9348 128.695H88.0505V123.561H82.9348V128.695Z" fill="#113C64"/>
<path d="M96.8681 123.272H91.1814V128.985H96.8681V123.272Z" fill="white"/>
<path d="M96.868 129.274H91.1813C91.1048 129.274 91.0315 129.244 90.9774 129.189C90.9233 129.135 90.8929 129.061 90.8929 128.984V123.271C90.8929 123.195 90.9233 123.121 90.9774 123.067C91.0315 123.012 91.1048 122.982 91.1813 122.982H96.868C96.9445 122.982 97.0178 123.012 97.0719 123.067C97.126 123.121 97.1564 123.195 97.1564 123.271V129.002C97.1519 129.076 97.1196 129.145 97.066 129.196C97.0124 129.246 96.9416 129.274 96.868 129.274ZM91.4697 128.695H96.5796V123.561H91.4697V128.695Z" fill="#113C64"/>
<path d="M115.434 133C115.357 133 115.284 132.97 115.23 132.915C115.176 132.861 115.146 132.787 115.146 132.711V126.731C115.146 126.654 115.176 126.58 115.23 126.526C115.284 126.472 115.357 126.441 115.434 126.441C115.51 126.441 115.584 126.472 115.638 126.526C115.692 126.58 115.722 126.654 115.722 126.731V132.711C115.722 132.787 115.692 132.861 115.638 132.915C115.584 132.97 115.51 133 115.434 133Z" fill="white"/>
<path d="M125.889 132.71V100.895H115.433V124.094" fill="#113C64"/>
<path d="M125.89 133C125.814 133 125.74 132.97 125.686 132.915C125.632 132.861 125.602 132.787 125.602 132.71V101.19H115.722V124.1C115.722 124.177 115.692 124.251 115.638 124.305C115.584 124.359 115.51 124.39 115.434 124.39C115.357 124.39 115.284 124.359 115.23 124.305C115.176 124.251 115.146 124.177 115.146 124.1V100.924C115.147 100.847 115.178 100.775 115.232 100.721C115.285 100.667 115.358 100.636 115.434 100.634H125.89C125.966 100.636 126.039 100.667 126.092 100.721C126.146 100.775 126.177 100.847 126.179 100.924V132.71C126.179 132.787 126.148 132.861 126.094 132.915C126.04 132.97 125.967 133 125.89 133Z" fill="white"/>
<path d="M191.856 132.71H134.401V78.8421L163.129 63.2096L191.856 78.8421V132.71Z" fill="white"/>
<path d="M191.857 133H134.402C134.326 133 134.252 132.97 134.198 132.915C134.144 132.861 134.114 132.787 134.114 132.71V78.8252C134.114 78.7732 134.128 78.7222 134.155 78.6775C134.181 78.6327 134.219 78.5957 134.264 78.5702L162.991 62.9261C163.034 62.9033 163.081 62.8914 163.13 62.8914C163.178 62.8914 163.226 62.9033 163.268 62.9261L191.996 78.5702C192.041 78.5957 192.078 78.6327 192.105 78.6775C192.131 78.7222 192.145 78.7732 192.146 78.8252V132.71C192.146 132.787 192.115 132.861 192.061 132.915C192.007 132.97 191.934 133 191.857 133ZM134.691 132.421H191.569V79.0164L163.13 63.5287L134.691 79.0048V132.421Z" fill="#113C64"/>
<path d="M196.246 81.1372L163.13 63.1117L130.013 81.1372L128.981 79.2251L163.13 60.6376L197.278 79.2251L196.246 81.1372Z" fill="white"/>
<path d="M196.247 81.4266C196.201 81.4269 196.155 81.4149 196.114 81.3919L163.131 63.4301L130.147 81.3919C130.076 81.418 129.998 81.418 129.928 81.3919C129.855 81.3672 129.795 81.3153 129.76 81.247L128.728 79.3408C128.71 79.3073 128.698 79.2705 128.694 79.2326C128.69 79.1947 128.693 79.1563 128.704 79.1197C128.715 79.0831 128.733 79.0489 128.757 79.0193C128.78 78.9896 128.81 78.965 128.843 78.9468L162.992 60.3593C163.035 60.3364 163.082 60.3245 163.131 60.3245C163.179 60.3245 163.226 60.3364 163.269 60.3593L197.418 78.9468C197.484 78.9848 197.534 79.047 197.556 79.1206C197.584 79.1912 197.584 79.2701 197.556 79.3408L196.524 81.247C196.502 81.3018 196.463 81.3484 196.414 81.3805C196.364 81.4126 196.306 81.4287 196.247 81.4266ZM163.131 62.8218C163.179 62.8222 163.226 62.8341 163.269 62.8565L196.143 80.7429L196.899 79.3408L163.142 60.9676L129.403 79.3408L130.158 80.7429L163.032 62.8565C163.063 62.8394 163.096 62.8276 163.131 62.8218Z" fill="#113C64"/>
<path d="M134.401 78.8421V80.1515L163.129 64.519L191.856 80.1515V78.8421L163.129 63.2096L134.401 78.8421Z" fill="#113C64"/>
<path d="M191.857 80.4415C191.809 80.441 191.762 80.4291 191.719 80.4067L163.13 64.8495L134.541 80.4067C134.498 80.4322 134.449 80.4456 134.399 80.4456C134.35 80.4456 134.301 80.4322 134.258 80.4067C134.214 80.3824 134.177 80.3463 134.151 80.3023C134.126 80.2584 134.113 80.2083 134.114 80.1575V78.8481C134.114 78.7961 134.128 78.7451 134.155 78.7004C134.181 78.6556 134.219 78.6186 134.264 78.5931L162.991 62.949C163.034 62.9262 163.082 62.9143 163.13 62.9143C163.178 62.9143 163.226 62.9262 163.268 62.949L191.996 78.5931C192.041 78.6186 192.078 78.6556 192.105 78.7004C192.131 78.7451 192.145 78.7961 192.146 78.8481V80.1575C192.146 80.2075 192.133 80.2568 192.109 80.3004C192.085 80.3441 192.05 80.3807 192.007 80.4067C191.961 80.4323 191.91 80.4443 191.857 80.4415ZM163.13 64.218C163.178 64.2184 163.225 64.2303 163.268 64.2527L191.569 79.6535V79.0045L163.13 63.5285L134.691 79.0045V79.6535L162.991 64.2527C163.035 64.2343 163.082 64.2264 163.13 64.2295V64.218Z" fill="#113C64"/>
<path d="M150.563 91.9253V86.247H175.352V114.551" fill="white"/>
<path d="M175.351 114.841C175.274 114.841 175.201 114.811 175.147 114.757C175.093 114.702 175.062 114.629 175.062 114.552V86.5372H150.839V91.92C150.839 91.9968 150.809 92.0705 150.755 92.1248C150.701 92.1791 150.627 92.2097 150.551 92.2097C150.474 92.2097 150.401 92.1791 150.347 92.1248C150.293 92.0705 150.263 91.9968 150.263 91.92V86.2417C150.263 86.1649 150.293 86.0912 150.347 86.0369C150.401 85.9826 150.474 85.952 150.551 85.952H175.351C175.427 85.952 175.501 85.9826 175.555 86.0369C175.609 86.0912 175.639 86.1649 175.639 86.2417V114.546C175.64 114.584 175.633 114.623 175.619 114.659C175.605 114.694 175.584 114.727 175.557 114.755C175.53 114.782 175.498 114.804 175.463 114.819C175.427 114.834 175.389 114.841 175.351 114.841Z" fill="#113C64"/>
<path d="M175.352 117.478V123.051H150.563V94.0867" fill="white"/>
<path d="M175.351 123.341H150.551C150.474 123.341 150.401 123.311 150.347 123.256C150.293 123.202 150.263 123.128 150.263 123.051V94.0809C150.263 94.004 150.293 93.9303 150.347 93.876C150.401 93.8217 150.474 93.7912 150.551 93.7912C150.627 93.7912 150.701 93.8217 150.755 93.876C150.809 93.9303 150.839 94.004 150.839 94.0809V122.756H175.062V117.472C175.062 117.395 175.093 117.321 175.147 117.267C175.201 117.213 175.274 117.182 175.351 117.182C175.427 117.182 175.501 117.213 175.555 117.267C175.609 117.321 175.639 117.395 175.639 117.472V123.046C175.639 123.123 175.609 123.197 175.555 123.253C175.501 123.308 175.428 123.34 175.351 123.341Z" fill="#113C64"/>
<path d="M173.702 97.3078H164.059V104.041H173.702V97.3078Z" fill="#113C64"/>
<path d="M173.696 104.331H164.059C163.983 104.331 163.909 104.3 163.855 104.246C163.801 104.192 163.771 104.118 163.771 104.041V97.3084C163.771 97.2315 163.801 97.1578 163.855 97.1035C163.909 97.0492 163.983 97.0186 164.059 97.0186H173.696C173.773 97.0186 173.846 97.0492 173.9 97.1035C173.954 97.1578 173.985 97.2315 173.985 97.3084V104.041C173.985 104.118 173.954 104.192 173.9 104.246C173.846 104.3 173.773 104.331 173.696 104.331ZM164.347 103.751H173.408V97.5981H164.347V103.751Z" fill="#113C64"/>
<path d="M173.702 106.254H164.059V112.987H173.702V106.254Z" fill="#113C64"/>
<path d="M173.696 113.271H164.059C163.983 113.271 163.909 113.24 163.855 113.186C163.801 113.131 163.771 113.058 163.771 112.981V106.254C163.771 106.177 163.801 106.103 163.855 106.049C163.909 105.995 163.983 105.964 164.059 105.964H173.696C173.773 105.964 173.846 105.995 173.9 106.049C173.954 106.103 173.985 106.177 173.985 106.254V112.981C173.985 113.058 173.954 113.131 173.9 113.186C173.846 113.24 173.773 113.271 173.696 113.271ZM164.347 112.691H173.408V106.544H164.347V112.691Z" fill="#113C64"/>
<path d="M173.702 87.9044H164.059V95.0891H173.702V87.9044Z" fill="#113C64"/>
<path d="M173.696 95.3959H164.059C163.983 95.3959 163.909 95.3654 163.855 95.311C163.801 95.2567 163.771 95.183 163.771 95.1062V87.9041C163.771 87.8273 163.801 87.7536 163.855 87.6993C163.909 87.6449 163.983 87.6144 164.059 87.6144H173.696C173.773 87.6144 173.846 87.6449 173.9 87.6993C173.954 87.7536 173.985 87.8273 173.985 87.9041V95.0946C173.986 95.1336 173.98 95.1725 173.966 95.209C173.953 95.2455 173.932 95.2788 173.905 95.307C173.878 95.3351 173.845 95.3575 173.81 95.3728C173.774 95.3881 173.735 95.3959 173.696 95.3959ZM164.347 94.8165H173.408V88.1938H164.347V94.8165Z" fill="#113C64"/>
<path d="M161.855 87.9044H152.212V95.0891H161.855V87.9044Z" fill="#113C64"/>
<path d="M161.855 95.3959H152.212C152.136 95.3959 152.062 95.3654 152.008 95.311C151.954 95.2567 151.924 95.183 151.924 95.1062V87.9041C151.924 87.8273 151.954 87.7536 152.008 87.6993C152.062 87.6449 152.136 87.6144 152.212 87.6144H161.855C161.931 87.6159 162.004 87.6469 162.057 87.7009C162.111 87.7549 162.142 87.8277 162.144 87.9041V95.0946C162.144 95.1334 162.137 95.172 162.123 95.2081C162.109 95.2443 162.088 95.2773 162.062 95.3053C162.035 95.3332 162.003 95.3556 161.967 95.3712C161.932 95.3867 161.894 95.3951 161.855 95.3959ZM152.5 94.8165H161.567V88.1938H152.5V94.8165Z" fill="#113C64"/>
<path d="M161.855 106.254H152.212V112.987H161.855V106.254Z" fill="#113C64"/>
<path d="M161.855 113.271H152.212C152.136 113.271 152.062 113.24 152.008 113.186C151.954 113.131 151.924 113.058 151.924 112.981V106.254C151.924 106.177 151.954 106.103 152.008 106.049C152.062 105.995 152.136 105.964 152.212 105.964H161.855C161.932 105.964 162.005 105.995 162.059 106.049C162.113 106.103 162.144 106.177 162.144 106.254V112.981C162.144 113.058 162.113 113.131 162.059 113.186C162.005 113.24 161.932 113.271 161.855 113.271ZM152.5 112.691H161.567V106.544H152.5V112.691Z" fill="#113C64"/>
<path d="M161.855 97.3078H152.212V104.041H161.855V97.3078Z" fill="#113C64"/>
<path d="M161.855 104.331H152.212C152.136 104.331 152.062 104.3 152.008 104.246C151.954 104.192 151.924 104.118 151.924 104.041V97.3084C151.924 97.2315 151.954 97.1578 152.008 97.1035C152.062 97.0492 152.136 97.0186 152.212 97.0186H161.855C161.932 97.0186 162.005 97.0492 162.059 97.1035C162.113 97.1578 162.144 97.2315 162.144 97.3084V104.041C162.142 104.117 162.111 104.19 162.057 104.244C162.004 104.298 161.931 104.329 161.855 104.331ZM152.5 103.751H161.567V97.5981H152.5V103.751Z" fill="#113C64"/>
<path d="M173.702 115.195H164.059V121.388H173.702V115.195Z" fill="#113C64"/>
<path d="M173.696 121.678H164.059C163.983 121.678 163.909 121.647 163.855 121.593C163.801 121.539 163.771 121.465 163.771 121.388V115.194C163.771 115.117 163.801 115.044 163.855 114.989C163.909 114.935 163.983 114.905 164.059 114.905H173.696C173.773 114.905 173.846 114.935 173.9 114.989C173.954 115.044 173.985 115.117 173.985 115.194V121.388C173.985 121.465 173.954 121.539 173.9 121.593C173.846 121.647 173.773 121.678 173.696 121.678ZM164.347 121.098H173.408V115.484H164.347V121.098Z" fill="#113C64"/>
<path d="M161.855 115.195H152.212V121.388H161.855V115.195Z" fill="#113C64"/>
<path d="M161.855 121.678H152.212C152.136 121.678 152.062 121.647 152.008 121.593C151.954 121.539 151.924 121.465 151.924 121.388V115.194C151.924 115.117 151.954 115.044 152.008 114.989C152.062 114.935 152.136 114.905 152.212 114.905H161.855C161.931 114.906 162.004 114.937 162.057 114.991C162.111 115.045 162.142 115.118 162.144 115.194V121.388C162.144 121.465 162.113 121.539 162.059 121.593C162.005 121.647 161.932 121.678 161.855 121.678ZM152.5 121.098H161.567V115.484H152.5V121.098Z" fill="#113C64"/>
<defs>
<linearGradient id="paint0_linear_31_7605" x1="54.0274" y1="193.117" x2="225.904" y2="36.3584" gradientUnits="userSpaceOnUse">
<stop stop-color="#C4EFFC"/>
<stop offset="1" stop-color="#F6FAFC"/>
</linearGradient>
</defs>
</svg>
