<svg width="70" height="64" viewBox="0 0 70 64" fill="none" xmlns="http://www.w3.org/2000/svg">
<g filter="url(#filter0_d_31_9354)">
<path d="M40.5593 26.3322C37.8281 19.4644 30.3347 15 21.7643 15C10.8628 15 2 22.9644 2 32.7567C2 36.8711 3.54637 40.76 6.33907 43.8711C7.10072 44.7811 7.62387 45.3722 8.78557 46.6167L6.31599 57L18 51C30.6132 52.4911 40.0361 47.1456 41.7287 37.4622C41.9825 36 42.5442 31.3178 40.5593 26.3322Z" fill="#1A6DBA"/>
<path d="M40.9923 32.6535C40.9923 41.2933 32.5 48.2994 22.4923 48.2994C20.9969 48.2994 19.54 48.1474 18.1525 47.8663L9.44979 52L11.215 45.0471C6.82896 42.19 4 37.6991 4 32.6459C4 24.0061 12.2787 16.5 22.4923 16.5C32.7058 16.5 41 24.0061 41 32.6459L40.9923 32.6535Z" fill="#9EE9FF"/>
<path d="M13.6667 35.2223C12.3834 35.2223 11.3334 34.1723 11.3334 32.889C11.3334 31.6056 12.3834 30.5556 13.6667 30.5556C14.95 30.5556 16 31.6056 16 32.889C16 34.1723 14.95 35.2223 13.6667 35.2223Z" fill="#1A6DBA"/>
<path d="M22.2222 35.2223C20.9389 35.2223 19.8889 34.1723 19.8889 32.889C19.8889 31.6056 20.9389 30.5556 22.2222 30.5556C23.5056 30.5556 24.5556 31.6056 24.5556 32.889C24.5556 34.1723 23.5056 35.2223 22.2222 35.2223Z" fill="#1A6DBA"/>
<path d="M30.7777 35.2223C29.4943 35.2223 28.4443 34.1723 28.4443 32.889C28.4443 31.6056 29.4943 30.5556 30.7777 30.5556C32.061 30.5556 33.111 31.6056 33.111 32.889C33.111 34.1723 32.061 35.2223 30.7777 35.2223Z" fill="#1A6DBA"/>
<path d="M29.2211 12.5C31.522 6.77604 38.0856 3 45.3169 3C54.513 3 62 9.63542 62 17.8021C62 21.2292 60.6925 24.4667 58.3332 27.0625C57.6904 27.8208 57.2522 28.3094 56.2661 29.3448L58.3478 38L49.5837 33.4208C39.5621 35.6885 29.6595 29.0646 28.2278 21C28.0087 19.7823 27.5484 16.6562 29.2211 12.5Z" fill="#1A6DBA"/>
<path d="M29.3204 17.6416C29.3204 25.0135 36.3431 30.9854 45.0057 30.9854C46.2705 30.9854 47.5059 30.8541 48.6899 30.6135L56.0729 34.1427L54.5801 28.2146C58.3011 25.7719 60.6983 21.9437 60.6983 17.6416C60.6983 10.2698 53.6756 4.2979 45.0131 4.2979C36.3505 4.2979 29.3278 10.2698 29.3278 17.6416H29.3204Z" fill="#9EE9FF"/>
<path d="M52.1977 19.2021C53.2787 19.2021 54.1611 18.3271 54.1611 17.2552C54.1611 16.1834 53.2787 15.3084 52.1977 15.3084C51.1167 15.3084 50.2343 16.1834 50.2343 17.2552C50.2343 18.3271 51.1167 19.2021 52.1977 19.2021Z" fill="#1A6DBA"/>
<path d="M45.0058 19.2021C46.0868 19.2021 46.9692 18.3271 46.9692 17.2552C46.9692 16.1834 46.0868 15.3084 45.0058 15.3084C43.9248 15.3084 43.0424 16.1834 43.0424 17.2552C43.0424 18.3271 43.9248 19.2021 45.0058 19.2021Z" fill="#1A6DBA"/>
<path d="M37.8139 19.2021C38.8949 19.2021 39.7773 18.3271 39.7773 17.2552C39.7773 16.1834 38.8949 15.3084 37.8139 15.3084C36.7329 15.3084 35.8505 16.1834 35.8505 17.2552C35.8505 18.3271 36.7329 19.2021 37.8139 19.2021Z" fill="#1A6DBA"/>
</g>
<defs>
<filter id="filter0_d_31_9354" x="0" y="0" width="70" height="64" filterUnits="userSpaceOnUse" color-interpolation-filters="sRGB">
<feFlood flood-opacity="0" result="BackgroundImageFix"/>
<feColorMatrix in="SourceAlpha" type="matrix" values="0 0 0 0 0 0 0 0 0 0 0 0 0 0 0 0 0 0 127 0" result="hardAlpha"/>
<feMorphology radius="1" operator="dilate" in="SourceAlpha" result="effect1_dropShadow_31_9354"/>
<feOffset dx="3" dy="2"/>
<feGaussianBlur stdDeviation="2"/>
<feColorMatrix type="matrix" values="0 0 0 0 0 0 0 0 0 0 0 0 0 0 0 0 0 0 0.2 0"/>
<feBlend mode="normal" in2="BackgroundImageFix" result="effect1_dropShadow_31_9354"/>
<feBlend mode="normal" in="SourceGraphic" in2="effect1_dropShadow_31_9354" result="shape"/>
</filter>
</defs>
</svg>
