<svg width="24" height="24" viewBox="0 0 24 24" fill="none" xmlns="http://www.w3.org/2000/svg">
<path d="M21.0002 18H17.0002C16.4479 18 16.0002 18.4477 16.0002 19V21C16.0002 21.5523 16.4479 22 17.0002 22H21.0002C21.5525 22 22.0002 21.5523 22.0002 21V19C22.0002 18.4477 21.5525 18 21.0002 18Z" stroke="black" stroke-width="1.5" stroke-linecap="round" stroke-linejoin="round"/>
<path d="M17.25 18V16.75C17.25 15.7835 18.0335 15 19 15C19.9665 15 20.75 15.7835 20.75 16.75V18" stroke="black" stroke-width="1.5" stroke-linecap="round" stroke-linejoin="round"/>
<path d="M12 20C7.02944 20 3 15.9706 3 11C3 6.02944 7.02944 2 12 2C16.9706 2 21 6.02944 21 11" stroke="black" stroke-width="1.5" stroke-linecap="round" stroke-linejoin="round"/>
<path d="M8.79077 9.34863V12.9999C8.79239 13.5515 9.23916 13.9983 9.79077 13.9999H14.2908C14.8431 13.9999 15.2908 13.5522 15.2908 12.9999V9.41537" stroke="black" stroke-width="1.5" stroke-linecap="round" stroke-linejoin="round"/>
<path d="M15.9998 10L12.6356 7.22822C12.2663 6.92393 11.7332 6.92393 11.3639 7.22822L7.99976 10" stroke="black" stroke-width="1.5" stroke-linecap="round" stroke-linejoin="round"/>
</svg>
