<svg width="24" height="24" viewBox="0 0 24 24" fill="none" xmlns="http://www.w3.org/2000/svg">
<path d="M12 10.6669L16.0003 6.66654C16.3684 6.29841 16.9653 6.29841 17.3334 6.66654C17.7016 7.03467 17.7016 7.63153 17.3334 7.99967L13.3331 12L17.3334 16.0003C17.7016 16.3684 17.7016 16.9653 17.3334 17.3334C16.9653 17.7016 16.3684 17.7016 16.0003 17.3334L12 13.3331L7.9997 17.3334C7.63156 17.7016 7.0347 17.7016 6.66657 17.3334C6.29844 16.9653 6.29844 16.3684 6.66657 16.0003L10.6669 12L6.66657 7.99967C6.29844 7.63153 6.29844 7.03467 6.66657 6.66654C7.0347 6.29841 7.63156 6.29841 7.9997 6.66654L12 10.6669Z" fill="black"/>
</svg>
