<svg width="24" height="24" viewBox="0 0 24 24" fill="none" xmlns="http://www.w3.org/2000/svg">
<path d="M18 18V14.5C18 13.672 18.672 13 19.5 13C20.328 13 21 13.672 21 14.5V19C21 20.657 19.657 22 18 22C16.343 22 15 20.657 15 19V16" stroke="black" stroke-width="1.5" stroke-linecap="round" stroke-linejoin="round"/>
<path d="M11 16H7" stroke="black" stroke-width="1.5" stroke-linecap="round" stroke-linejoin="round"/>
<path d="M14 12H7" stroke="black" stroke-width="1.5" stroke-linecap="round" stroke-linejoin="round"/>
<path d="M14 8H7" stroke="black" stroke-width="1.5" stroke-linecap="round" stroke-linejoin="round"/>
<path d="M18 9V5C18 3.895 17.105 3 16 3H5C3.895 3 3 3.895 3 5V19C3 20.105 3.895 21 5 21H11" stroke="black" stroke-width="1.5" stroke-linecap="round" stroke-linejoin="round"/>
</svg>
