<svg width="24" height="24" viewBox="0 0 24 24" fill="none" xmlns="http://www.w3.org/2000/svg">
<path fill-rule="evenodd" clip-rule="evenodd" d="M5.99734 21.0038H3.99651C3.44428 21.0038 2.99609 20.5556 2.99609 20.0033V14.0008C2.99609 13.4486 3.44428 13.0004 3.99651 13.0004H5.99734C6.54957 13.0004 6.99776 13.4486 6.99776 14.0008V20.0033C6.99776 20.5556 6.54957 21.0038 5.99734 21.0038Z" stroke="black" stroke-width="1.5" stroke-linecap="round" stroke-linejoin="round"/>
<path d="M13.0003 17.0021H15.3343C15.7675 17.0021 16.1886 16.862 16.5348 16.6019L18.9518 14.7892C19.555 14.337 20.3994 14.397 20.9326 14.9302C21.5249 15.5225 21.5249 16.4819 20.9326 17.0731L18.8587 19.147C18.3005 19.7052 17.5882 20.0864 16.8139 20.2414L13.8827 20.8277C13.3014 20.9437 12.7022 20.9297 12.1269 20.7857L9.47583 20.1234C9.1587 20.0434 8.83357 20.0033 8.50643 20.0033H6.9978" stroke="black" stroke-width="1.5" stroke-linecap="round" stroke-linejoin="round"/>
<path d="M13.0003 17.0021H14.4859C15.3233 17.0021 16.0016 16.3238 16.0016 15.4865V15.1833C16.0016 14.488 15.5284 13.8818 14.8541 13.7137L12.5611 13.1405C12.188 13.0474 11.8058 13.0004 11.4216 13.0004C10.4943 13.0004 9.58688 13.2745 8.81556 13.7898L6.9978 15.0013" stroke="black" stroke-width="1.5" stroke-linecap="round" stroke-linejoin="round"/>
<path d="M13.4495 4.17076L8.82257 4.17376C8.55746 4.17376 8.30335 4.2798 8.11627 4.46688L7.29093 5.29223C6.89977 5.68339 6.89977 6.31665 7.29093 6.70682L8.11928 7.53516C8.30635 7.72224 8.56146 7.82828 8.82657 7.82728L13.4525 7.82428L13.4635 7.82528C14.1268 9.11282 15.4543 10.0012 17.004 9.99918C19.2129 9.99318 21.0036 8.19744 21.0036 5.98952C21.0046 3.7806 19.2159 1.99385 17.007 1.99585C15.4633 1.99985 14.1388 2.88923 13.4725 4.17176" stroke="black" stroke-width="1.5" stroke-linecap="round" stroke-linejoin="round"/>
<path d="M17.0039 6.2616C17.148 6.2616 17.264 6.14455 17.264 6.00049C17.264 5.85643 17.146 5.73938 17.0029 5.73938C16.8588 5.73938 16.7418 5.85643 16.7418 6.00049C16.7418 6.14455 16.8588 6.2616 17.0039 6.2616Z" stroke="black" stroke-width="1.5" stroke-linecap="round" stroke-linejoin="round"/>
</svg>
