<svg width="24" height="24" viewBox="0 0 24 24" fill="none" xmlns="http://www.w3.org/2000/svg">
<path d="M11.9798 13.7447L12.7051 18.1019C12.7606 18.4344 12.7431 18.7749 12.6536 19.0999C12.5641 19.4249 12.4049 19.7267 12.187 19.9839C11.9691 20.2411 11.6979 20.4477 11.392 20.5894C11.0862 20.7311 10.7531 20.8043 10.416 20.8042C9.86648 20.8041 9.33476 20.6092 8.91558 20.2539C8.49639 19.8986 8.21678 19.4061 8.12666 18.864L7.26929 13.7447" stroke="black" stroke-width="1.5" stroke-linecap="round" stroke-linejoin="round"/>
<path d="M14.3323 13.7446H6.09566C5.63205 13.7446 5.17302 13.6533 4.74472 13.4758C4.31641 13.2984 3.92711 13.0384 3.59932 12.7106C3.27154 12.3827 3.0116 11.9935 2.83426 11.5652C2.65693 11.1368 2.56581 10.6776 2.56592 10.214C2.56592 9.27791 2.93778 8.38011 3.59974 7.71815C4.26171 7.05619 5.1595 6.68433 6.09566 6.68433H14.3323" stroke="black" stroke-width="1.5" stroke-linecap="round" stroke-linejoin="round"/>
<path d="M14.3325 6.68432L19.5623 3.19749C19.7396 3.07946 19.9456 3.01159 20.1583 3.00136C20.371 2.99113 20.5826 3.03882 20.7703 3.1393C20.9581 3.23978 21.1151 3.38931 21.2245 3.57196C21.334 3.75461 21.3919 3.96352 21.392 4.17647V16.2527C21.3922 16.4658 21.3344 16.6748 21.225 16.8576C21.1155 17.0404 20.9586 17.1902 20.7707 17.2907C20.5829 17.3912 20.3713 17.4388 20.1585 17.4284C19.9457 17.4181 19.7395 17.35 19.5623 17.2317L14.3325 13.7448" stroke="black" stroke-width="1.5" stroke-linecap="round" stroke-linejoin="round"/>
<path d="M14.3333 13.7447V6.6842" stroke="black" stroke-width="1.5" stroke-linecap="round" stroke-linejoin="round"/>
</svg>
